# Blender 4.5.3 LTS
# www.blender.org
o Crystal_Pedal
v 0.571059 0.812695 -0.050793
v -0.446393 1.413745 -0.306878
v -0.796529 1.128802 0.054772
v -0.072467 -0.058898 0.932068
v -0.023577 -0.059752 0.918740
v -0.090665 -0.058580 0.937030
v -1.003238 -0.068763 0.127009
v 0.846264 -0.095929 -0.169488
v -0.681108 -0.065168 0.412939
v 0.643861 -0.087511 0.083732
v -0.334397 -0.094912 -0.642118
v -0.901305 -0.072748 0.009792
v 0.290277 -0.095450 -0.392055
v 0.582918 -0.095702 -0.274908
v 0.867297 1.301741 -0.285828
v 0.563103 1.924833 0.640422
v -0.303139 0.343361 -0.356266
v 0.085971 1.629441 0.714911
v 1.196434 -0.001299 -0.491199
v -0.378663 -0.088807 -0.413839
v -0.138091 -0.059500 0.879109
v -0.349725 -0.085281 -0.258314
v -0.241234 -0.072065 0.324766
v -0.378372 -0.088771 -0.412278
v -0.377442 -0.088821 -0.413911
v -0.131156 -0.091822 -0.428396
v 0.755249 -0.102623 -0.480530
v 1.164443 -0.107609 -0.504596
v 0.990625 -0.074495 0.762393
v 1.212658 -0.106758 -0.449084
v -0.072068 -0.060377 0.872282
v 1.189109 -0.107174 -0.476197
v 1.073935 -0.086600 0.307829
v 1.152081 -0.097956 -0.118562
v -0.547370 -0.047886 0.304294
v -0.452753 1.009052 0.418308
v 0.237567 0.972576 0.813493
v 0.071783 1.213825 0.393105
v 0.026651 0.765809 0.997825
v -0.440115 0.838680 0.663127
v 0.204755 -0.072503 0.501107
v -0.523691 -0.069655 0.299551
v -0.543099 -0.069364 0.302909
v -0.546844 -0.069231 0.306636
v -0.075650 -0.075513 0.257012
v -0.548599 -0.069170 0.308383
v -0.541416 -0.069423 0.301234
v 0.112937 -0.077979 0.239107
v 0.288061 -0.067534 0.738816
v -0.495115 -0.057507 0.804517
v -0.091200 -0.055023 1.081049
v 0.144384 -0.062795 0.868465
v -0.509731 -0.060694 0.668936
v -0.279227 -0.056179 0.952320
v 0.409774 -0.877339 0.083560
v 0.198749 -0.882077 -0.200398
v 0.373402 -0.882227 -0.130482
v -0.380990 -0.864004 0.280037
v -0.174067 -0.881756 -0.349639
v -0.512408 -0.868528 0.039432
v -0.017743 -0.860262 0.589862
v 0.011436 -0.860771 0.581907
v 0.366324 -0.340081 0.003274
v 0.530571 -0.882363 -0.067566
v -0.573243 -0.866149 0.109389
v -0.028604 -0.860072 0.592823
v 0.476252 -0.886358 -0.253201
v 0.666449 -0.876795 0.217305
v -0.118466 -0.868120 0.227414
v 0.616728 -0.869570 0.488597
v -0.017504 -0.861144 0.554180
v -0.199757 -0.878121 -0.213442
v -0.183215 -0.876008 -0.120578
v -0.056908 -0.860621 0.558255
v -0.052770 -0.879912 -0.222086
v -0.200312 -0.878091 -0.212467
v 0.713088 -0.883572 -0.037172
v 0.749242 -0.888826 -0.234433
v 0.735187 -0.889074 -0.250615
v 0.720466 -0.889334 -0.267564
v -0.200486 -0.878112 -0.213399
v 0.147708 -0.868382 0.332657
v -0.141141 -0.858639 0.601949
v -0.019642 -0.870178 0.186977
v -0.278709 -0.861334 0.432820
v 0.111678 -0.862588 0.551903
v -0.287041 -0.866682 0.212365
v -0.301906 -0.866392 0.217636
v -0.298624 -0.866508 0.214369
v -0.028923 -0.857949 0.678776
v -0.269986 -0.859432 0.513737
v 0.197426 -0.865416 0.474526
v 0.092909 -0.871650 0.176291
v -0.297619 -0.866544 0.213369
vn 0.2083 0.6601 0.7217
vn -0.6565 0.1578 0.7376
vn -0.7500 0.0899 -0.6553
vn 0.8675 -0.4670 0.1714
vn -0.0932 0.0809 -0.9924
vn 0.3620 0.2277 -0.9039
vn 0.7743 0.1543 0.6138
vn -0.3341 0.0039 -0.9425
vn 0.7575 -0.2246 0.6130
vn 0.0911 -0.3623 0.9276
vn -0.9460 -0.3052 0.1092
vn 0.3586 -0.2602 -0.8965
vn 0.6319 -0.3074 0.7115
vn -0.4891 0.6408 -0.5917
vn -0.9731 0.1464 0.1777
vn -0.9731 0.1464 0.1778
vn -0.7077 -0.3683 -0.6029
vn 0.6432 -0.5322 -0.5505
vn -0.0564 0.1415 -0.9883
vn 0.1036 0.0826 0.9912
vn 0.7483 -0.1435 -0.6477
vn 0.9614 0.2160 0.1704
vn -0.5119 -0.4162 0.7515
vn -0.0599 -0.2584 -0.9642
vn -0.0598 -0.2584 -0.9642
vn 0.1694 -0.0573 0.9839
vn -0.9678 -0.1717 0.1840
vn -0.9678 -0.1718 0.1840
vn 0.9437 0.0024 -0.3308
vn 0.2386 -0.3675 0.8989
vn 0.9410 0.0695 -0.3312
vn -0.0107 -0.9996 0.0247
vn -0.0108 -0.9996 0.0245
vn -0.0924 0.1150 -0.9891
vn -0.2783 0.7816 0.5583
vn -0.5581 0.1626 0.8137
vn -0.7040 -0.0946 -0.7039
vn -0.3666 0.1084 0.9240
vn 0.6694 -0.0208 0.7426
vn -0.9914 0.0774 0.1051
vn -0.6197 -0.3497 0.7026
vn 0.8950 -0.1391 0.4238
vn -0.7012 -0.1373 -0.6996
vt 0.407062 0.990723
vt 0.422893 0.978897
vt 0.407352 0.990747
vt 0.406893 0.990523
vt 0.418358 0.975247
vt 0.413999 0.985585
vt 0.411310 0.970472
vt 0.412177 0.963193
vt 0.409348 0.969143
vt 0.407085 0.971241
vt 0.396488 0.970585
vt 0.399805 0.970494
vt 0.408305 0.973374
vt 0.410874 0.977867
vt 0.407708 0.975524
vt 0.407842 0.979031
vt 0.407122 0.976898
vt 0.400320 0.981356
vt 0.400337 0.981877
vt 0.414437 0.965564
vt 0.410395 0.959718
vt 0.400114 0.975573
vt 0.406169 0.974385
vt 0.405395 0.976109
vt 0.402131 0.957219
vt 0.402253 0.953909
vt 0.411390 0.960758
vt 0.406656 0.991278
vt 0.405344 0.992221
vt 0.405393 0.991612
vt 0.405391 0.991613
vt 0.405377 0.976474
vt 0.405451 0.989513
vt 0.405393 0.991597
vt 0.405390 0.976821
vt 0.405684 0.976527
vt 0.406312 0.979619
vt 0.400250 0.972952
vt 0.401275 0.969179
vt 0.410667 0.988090
vt 0.400337 0.982022
vt 0.401512 0.962014
vt 0.396337 0.970564
vt 0.397677 0.951837
vt 0.385666 0.982052
vt 0.400347 0.981910
vt 0.396783 0.979915
vt 0.397546 0.975132
vt 0.398431 0.957361
vt 0.400278 0.981936
vt 0.400335 0.982060
s 1
f 4/1/1 3/2/1 6/3/1
f 5/4/1 2/5/1 4/1/1
f 6/3/2 3/2/2 9/6/2
f 11/7/3 12/8/3 2/5/3
f 70/9/4 33/10/4 29/9/4
f 48/11/5 84/12/5 45/12/5
f 13/13/6 1/14/6 14/15/6
f 4/1/1 2/5/1 3/2/1
f 10/16/7 8/17/7 1/14/7
f 42/18/8 88/19/8 46/19/8
f 3/2/3 12/8/3 7/20/3
f 10/16/9 64/17/9 8/17/9
f 31/21/10 70/9/10 29/9/10
f 5/4/1 1/14/1 2/5/1
f 46/19/11 85/22/11 53/22/11
f 2/5/6 1/14/6 13/13/6
f 13/13/12 59/7/12 11/7/12
f 2/5/6 13/13/6 11/7/6
f 1/14/6 8/17/6 14/15/6
f 3/2/2 7/20/2 9/6/2
f 34/23/4 78/24/4 30/24/4
f 86/25/13 49/26/13 52/25/13
f 3/2/3 2/5/3 12/8/3
f 74/27/10 31/21/10 21/27/10
f 17/28/14 18/2/14 16/5/14
f 22/29/15 17/28/15 24/30/16
f 11/7/17 60/8/17 12/8/17
f 17/28/14 16/5/14 15/14/14
f 24/30/16 17/28/15 20/31/16
f 78/24/18 32/32/18 30/24/18
f 26/33/19 25/34/19 17/28/19
f 29/9/20 16/5/20 31/21/20
f 32/32/21 28/35/21 19/36/21
f 33/10/22 34/23/22 15/14/22
f 19/36/19 28/35/19 27/37/19
f 50/38/23 83/39/23 54/39/23
f 18/2/20 21/27/20 31/21/20
f 32/32/21 19/36/21 30/24/21
f 19/36/22 15/14/22 34/23/22
f 16/5/22 29/9/22 33/10/22
f 15/14/19 27/37/19 26/33/19
f 17/28/15 22/29/15 23/40/15
f 18/2/15 23/40/15 21/27/15
f 25/34/24 81/31/25 20/31/24
f 89/41/26 42/18/26 43/41/26
f 17/28/19 25/34/19 20/31/19
f 13/13/12 57/15/12 56/13/12
f 33/10/4 77/23/4 34/23/4
f 53/22/11 91/38/11 50/38/11
f 81/31/27 24/30/28 20/31/28
f 90/42/13 52/25/13 51/42/13
f 54/39/23 90/42/23 51/42/23
f 23/40/28 74/27/28 21/27/28
f 82/43/29 48/11/29 41/43/29
f 19/36/19 27/37/19 15/14/19
f 18/2/20 31/21/20 16/5/20
f 19/36/22 34/23/22 30/24/22
f 16/5/22 33/10/22 15/14/22
f 15/14/19 26/33/19 17/28/19
f 17/28/15 23/40/15 18/2/15
f 5/4/30 61/1/30 62/4/30
f 73/29/28 23/40/28 22/29/28
f 37/44/31 49/26/31 41/43/31
f 41/43/31 48/11/31 38/45/31
f 92/26/29 41/43/29 49/26/29
f 4/1/30 66/3/30 61/1/30
f 43/41/32 42/18/32 44/46/33
f 76/30/27 22/29/28 24/30/28
f 44/46/33 42/18/32 46/19/33
f 38/45/34 45/12/34 36/47/34
f 40/48/35 39/49/35 38/45/35
f 54/39/36 51/42/36 39/49/36
f 45/12/5 87/18/5 42/18/5
f 44/46/37 35/50/37 43/41/37
f 10/16/38 63/14/38 55/16/38
f 26/33/24 72/34/25 25/34/24
f 38/45/34 48/11/34 45/12/34
f 42/18/5 94/51/5 47/51/5
f 51/42/39 52/25/39 39/49/39
f 36/47/35 40/48/35 38/45/35
f 38/45/35 39/49/35 37/44/35
f 35/50/40 40/48/40 36/47/40
f 9/6/41 66/3/41 6/3/41
f 54/39/36 40/48/36 50/38/36
f 40/48/40 53/22/40 50/38/40
f 37/44/39 39/49/39 52/25/39
f 40/48/40 35/50/40 46/19/40
f 37/44/31 41/43/31 38/45/31
f 35/50/37 44/46/37 46/19/37
f 35/50/37 47/51/37 43/41/37
f 40/48/40 46/19/40 53/22/40
f 35/50/34 42/18/34 47/51/34
f 42/18/34 35/50/34 36/47/34
f 54/39/36 39/49/36 40/48/36
f 37/44/39 52/25/39 49/26/39
f 42/18/34 36/47/34 45/12/34
f 55/16/32 62/4/32 58/6/32
f 60/8/32 59/7/32 58/6/32
f 59/7/32 56/13/32 58/6/32
f 61/1/32 66/3/32 58/6/32
f 58/6/32 65/20/32 60/8/32
f 56/13/32 57/15/32 55/16/32
f 62/4/32 61/1/32 58/6/32
f 63/14/7 62/4/7 55/16/7
f 58/6/32 56/13/32 55/16/32
f 57/15/32 64/17/32 55/16/32
f 67/37/32 68/10/32 69/40/32
f 72/34/32 76/30/32 81/31/32
f 73/29/32 76/30/32 72/34/32
f 75/33/32 73/29/32 72/34/32
f 69/40/32 71/21/32 74/27/32
f 73/29/32 75/33/32 69/40/32
f 70/9/32 71/21/32 69/40/32
f 70/9/32 69/40/32 68/10/32
f 68/10/32 67/37/32 77/23/32
f 77/23/32 79/32/32 78/24/32
f 79/32/32 67/37/32 80/35/32
f 79/32/32 77/23/32 67/37/32
f 67/37/32 69/40/32 75/33/32
f 86/25/32 82/43/32 92/26/32
f 85/22/32 83/39/32 91/38/32
f 82/43/32 84/12/32 93/11/32
f 88/19/32 87/18/32 85/22/32
f 83/39/32 86/25/32 90/42/32
f 85/22/32 84/12/32 83/39/32
f 83/39/32 82/43/32 86/25/32
f 94/51/32 87/18/32 89/41/32
f 84/12/32 82/43/32 83/39/32
f 84/12/32 85/22/32 87/18/32
f 14/15/12 64/17/12 57/15/12
f 79/32/18 28/35/18 32/32/18
f 9/6/41 65/20/41 58/6/41
f 5/4/42 63/14/42 1/14/42
f 47/51/43 89/41/43 43/41/43
f 80/35/24 27/37/24 28/35/24
f 12/8/17 65/20/17 7/20/17
f 67/37/24 26/33/24 27/37/24
f 70/9/4 68/10/4 33/10/4
f 48/11/5 93/11/5 84/12/5
f 42/18/8 87/18/8 88/19/8
f 10/16/9 55/16/9 64/17/9
f 31/21/10 71/21/10 70/9/10
f 46/19/11 88/19/11 85/22/11
f 13/13/12 56/13/12 59/7/12
f 34/23/4 77/23/4 78/24/4
f 86/25/13 92/26/13 49/26/13
f 74/27/10 71/21/10 31/21/10
f 11/7/17 59/7/17 60/8/17
f 78/24/18 79/32/18 32/32/18
f 50/38/23 91/38/23 83/39/23
f 25/34/24 72/34/25 81/31/25
f 89/41/26 87/18/26 42/18/26
f 13/13/12 14/15/12 57/15/12
f 33/10/4 68/10/4 77/23/4
f 53/22/11 85/22/11 91/38/11
f 81/31/27 76/30/27 24/30/28
f 90/42/13 86/25/13 52/25/13
f 54/39/23 83/39/23 90/42/23
f 23/40/28 69/40/28 74/27/28
f 82/43/29 93/11/29 48/11/29
f 5/4/30 4/1/30 61/1/30
f 73/29/28 69/40/28 23/40/28
f 92/26/29 82/43/29 41/43/29
f 4/1/30 6/3/30 66/3/30
f 76/30/27 73/29/28 22/29/28
f 45/12/5 84/12/5 87/18/5
f 10/16/38 1/14/38 63/14/38
f 26/33/24 75/33/24 72/34/25
f 42/18/5 87/18/5 94/51/5
f 9/6/41 58/6/41 66/3/41
f 14/15/12 8/17/12 64/17/12
f 79/32/18 80/35/18 28/35/18
f 9/6/41 7/20/41 65/20/41
f 5/4/42 62/4/42 63/14/42
f 47/51/43 94/51/43 89/41/43
f 80/35/24 67/37/24 27/37/24
f 12/8/17 60/8/17 65/20/17
f 67/37/24 75/33/24 26/33/24
o Crystal
v 0.138849 -0.003876 0.653001
v 0.309318 0.466216 0.467620
v 0.495882 0.473169 0.176357
v -0.074795 1.115842 0.211024
v 0.056620 1.141426 0.201017
v 0.255386 0.987203 -0.134899
v -0.096527 0.012994 0.646186
v -0.271351 0.463865 0.468157
v -0.302132 -0.536610 0.434792
v -0.405369 -0.035507 0.330103
v 0.017612 0.541579 -0.404714
v -0.198800 0.618022 -0.302740
v -0.368707 0.038072 -0.174007
v 0.253502 -0.983638 0.302643
v 0.488498 -0.226691 -0.115624
v 0.171382 -0.385605 -0.410785
v -0.162938 -1.000706 0.273507
v -0.165508 -0.776664 -0.213249
v 0.035288 -0.767575 -0.313950
v 0.158401 -1.092551 0.257760
vn -0.2018 0.8393 -0.5048
vn 0.8394 -0.0932 0.5354
vn -0.7152 -0.0013 0.6990
vn -0.7151 -0.0013 0.6990
vn 0.7590 -0.4794 -0.4407
vn 0.7579 -0.4796 -0.4421
vn 0.7580 -0.4796 -0.4420
vn -0.2698 -0.8752 -0.4014
vn 0.8152 0.5270 0.2404
vn -0.0006 0.3671 0.9302
vn -0.9614 0.2711 -0.0474
vn 0.8934 0.1649 -0.4179
vn -0.4448 -0.0679 -0.8931
vn -0.9593 -0.2315 -0.1619
vn -0.0517 -0.3416 0.9384
vn -0.1730 0.5760 -0.7989
vn -0.3558 0.7126 -0.6046
vn 0.9470 -0.1322 0.2929
vn 0.7620 -0.4786 -0.4362
vn 0.7238 -0.4004 -0.5620
vn -0.1884 -0.8707 -0.4543
vn 0.7391 0.4679 0.4846
vn -0.9611 0.2741 -0.0336
vn -0.9612 0.2739 -0.0330
vn -0.9613 0.2736 -0.0319
vn -0.9616 0.2730 -0.0301
vn 0.6463 0.1121 -0.7548
vn -0.9660 -0.2365 -0.1048
vn -0.9661 -0.2362 -0.1040
vn -0.9660 -0.2364 -0.1044
vn -0.9662 -0.2360 -0.1035
vt 0.422238 0.965742
vt 0.418671 0.967621
vt 0.400474 0.963320
vt 0.395066 0.959209
vt 0.383132 0.954840
vt 0.392969 0.946140
vt 0.427398 0.958812
vt 0.427040 0.950874
vt 0.378931 0.954957
vt 0.397505 0.953249
vt 0.395502 0.943694
vt 0.415664 0.948346
vt 0.426180 0.945813
vt 0.395757 0.958784
vt 0.393138 0.959209
vt 0.410090 0.967621
vt 0.424323 0.954614
vt 0.418429 0.955146
vt 0.414316 0.959756
vt 0.409131 0.958899
vt 0.407977 0.948227
vt 0.406228 0.952139
s 1
f 98/52/44 99/53/44 100/54/44
f 96/55/45 95/56/45 108/57/45
f 102/58/46 103/59/47 101/60/47
f 109/61/48 108/57/49 114/62/50
f 112/63/51 114/62/51 111/64/51
f 99/53/52 97/65/52 100/54/52
f 96/66/53 99/67/53 98/52/53
f 104/68/54 102/58/54 98/52/54
f 100/54/55 97/65/55 109/61/55
f 107/69/56 106/70/56 105/71/56
f 111/64/57 103/59/57 104/68/57
f 111/64/58 114/62/58 95/56/58
f 100/54/59 105/71/59 106/70/59
f 106/70/60 98/52/60 100/54/60
f 108/57/61 109/61/61 97/65/61
f 97/65/45 96/55/45 108/57/45
f 102/58/46 104/68/46 103/59/47
f 114/62/50 113/72/62 109/61/48
f 113/72/63 110/73/63 109/61/63
f 112/63/64 113/72/64 114/62/64
f 99/53/65 96/55/65 97/65/65
f 98/52/53 102/58/53 96/66/53
f 102/58/53 101/60/53 96/66/53
f 101/60/53 95/56/53 96/66/53
f 106/70/66 107/69/67 98/52/68
f 107/69/67 104/68/69 98/52/68
f 110/73/70 105/71/70 109/61/70
f 105/71/70 100/54/70 109/61/70
f 105/71/56 110/73/56 113/72/56
f 113/72/56 112/63/56 105/71/56
f 112/63/56 107/69/56 105/71/56
f 104/68/71 107/69/72 111/64/73
f 107/69/72 112/63/74 111/64/73
f 108/57/58 95/56/58 114/62/58
f 95/56/58 101/60/58 111/64/58
f 101/60/58 103/59/58 111/64/58
