# Blender 4.5.3 LTS
# www.blender.org
o Door_Big_Frame
v 5.480187 -0.001231 -1.000000
v 5.480188 -0.001231 1.000000
v 3.480188 1.627467 1.000000
v 3.411368 6.428906 1.018259
v 3.401856 6.339144 -0.979703
v 3.048421 9.971934 -1.137095
v 3.024749 10.075810 0.860066
v 1.799301 8.496664 0.824508
v -0.074245 10.819450 -0.992508
v -0.132468 10.819040 1.005957
v -0.132486 8.819770 1.005967
v -0.073020 8.819766 -0.992813
v 3.450160 3.433645 -0.992219
v 5.407312 3.685928 -1.007000
v 5.410959 3.720337 0.992219
v 3.808686 -0.001231 1.000000
v 2.185848 7.920797 -1.048850
v 2.172796 8.002662 0.575978
v 0.558780 10.656316 0.974015
v 2.663300 10.160898 0.876768
v 0.857715 10.475849 0.960849
v 2.276263 10.253191 0.727522
v 2.343486 8.124376 0.942170
v 3.896960 8.941934 0.890971
v 3.766912 9.112092 0.885003
v 3.843733 9.008999 0.803968
v 2.313436 7.837196 0.956566
v 5.098795 7.551520 0.974723
v 5.015223 6.987909 0.985509
v 5.061429 7.500300 -1.025076
v 5.402904 6.757931 0.567147
v 5.031798 6.907238 -0.657767
v 5.176001 6.566106 -1.017402
v 3.480188 -0.001231 0.826043
v 3.451920 3.599715 1.007500
v 4.046811 3.544495 1.002521
v 3.453580 3.465919 0.882949
v 3.455450 3.353376 1.006564
v 5.220438 1.627467 1.000000
v 5.476046 1.752703 0.999534
v 5.480188 1.305210 1.000000
v 5.480188 1.627467 0.722113
v -5.685696 1.627467 0.859553
v -5.685696 1.627466 -1.000000
v -3.685696 -0.001231 1.000000
v -3.685696 -0.001231 -1.000000
v -5.650614 2.671664 -0.828190
v -5.505102 7.087024 -0.979703
v -3.616876 6.428906 -1.018260
v -3.607365 6.339144 0.979702
v -3.253930 9.971934 1.137094
v -3.230257 10.075810 -0.860067
v -2.004809 8.496664 -0.927676
v -2.028481 8.392788 1.069484
v -0.132511 10.819024 1.005967
v -0.071792 10.818614 -0.993116
v -0.073018 8.819765 -0.992811
v -0.132493 8.819761 1.005957
v -3.639436 5.389651 -1.012274
v -3.633043 5.329314 0.986356
v -3.682684 1.839203 0.999219
v -3.685696 1.520438 1.000000
v -3.685696 1.627467 0.570940
v -4.331656 1.627467 1.000000
v -5.685696 -0.001231 0.878301
v -5.424446 -0.001231 1.000000
v -5.685696 0.942781 1.000000
v -5.333333 5.077355 1.011731
v -4.027350 5.310396 0.991665
v -5.558376 5.241359 0.866679
v -5.319201 5.476531 1.013088
v -5.362024 7.311932 0.823528
v -5.501693 7.054859 -0.263776
v -5.246533 6.910455 1.013173
v -5.505257 6.724214 0.815518
v -2.172288 8.578101 1.077418
v -2.491841 7.790098 1.043135
v -2.024817 8.408862 0.760424
v 5.480188 1.627467 -0.344238
v 4.923307 1.627466 -1.000000
v 5.480187 1.261962 -1.000000
v 5.473556 1.814787 -1.000637
v 3.480188 1.627467 -0.633961
v 3.764292 1.627466 -1.000000
v 3.477352 1.798016 -0.999265
v 3.480187 1.523016 -1.000000
v 3.765669 -0.001231 -1.000000
v 3.480187 0.878737 -1.000000
v 3.480188 -0.001231 -0.619773
v -5.685696 -0.001231 -0.707004
v -5.467429 -0.001231 -1.000000
v -3.685696 1.382164 -1.000000
v -3.896203 1.627466 -1.000000
v -3.683882 1.774956 -1.000481
v -3.685696 1.627467 -0.716631
v -5.640658 2.989018 -0.994938
v -5.656861 2.499186 -0.996759
v -5.451872 2.846890 -0.995467
v -4.534686 5.346700 -1.000220
v -5.570692 5.104175 -0.987075
v -5.558850 5.462165 -0.985744
v -5.563891 5.293410 -0.857493
v -5.237611 7.438463 -0.965635
v -4.059107 9.307846 -0.490820
v -4.405621 7.641659 -1.131074
v -3.055463 9.850567 -0.869710
v -2.231405 8.788662 -0.915175
v -2.640895 9.573967 -0.890377
v -2.603626 9.016280 -0.905218
v -2.622299 9.292379 -0.804709
v 1.982747 8.598678 -1.078299
v 0.499618 8.690807 -1.015969
v 1.818652 8.411746 -0.723817
v 3.848007 8.982194 0.271937
v 3.953539 8.801656 -1.103130
v 3.673062 9.155690 -1.116051
v 3.138501 8.485457 -1.083541
v 4.123218 6.590564 -0.994433
v 3.422683 5.086376 -0.985099
v 3.693646 4.099071 -0.994893
v 3.438886 4.140136 -0.765737
v 4.609449 3.583081 -1.201758
v 3.438348 4.144102 -0.989159
vn 1.0000 -0.0000 -0.0000
vn -0.0000 -0.0000 1.0000
vn -0.0019 -0.0022 1.0000
vn 0.4074 -0.8301 0.3808
vn -0.7741 -0.2511 -0.5812
vn -0.0000 -1.0000 -0.0000
vn -0.9999 -0.0147 0.0025
vn -0.9999 -0.0152 0.0045
vn -0.9999 -0.0165 0.0029
vn -0.7909 -0.6116 0.0222
vn -0.7925 -0.6093 0.0242
vn -0.7923 -0.6096 0.0245
vn 0.9985 0.0260 -0.0480
vn 0.9944 0.0495 -0.0939
vn 1.0000 0.0024 -0.0019
vn 0.1807 0.0264 -0.9832
vn 0.0216 0.0576 -0.9981
vn 0.2352 0.0154 -0.9718
vn 0.2407 0.9701 -0.0302
vn 0.2485 0.9686 -0.0117
vn 0.2329 0.9712 -0.0496
vn -0.3177 0.6470 0.6931
vn -0.9144 0.1151 0.3880
vn -0.0456 -0.0038 -0.9990
vn -0.0416 -0.0005 -0.9991
vn -0.0442 -0.0024 -0.9990
vn 0.0619 -0.0393 0.9973
vn 0.0464 -0.0005 0.9989
vn 0.0614 -0.0385 0.9974
vn -0.6498 0.3866 -0.6545
vn -0.0006 0.0006 1.0000
vn 0.0019 0.0029 1.0000
vn 0.0040 -0.0002 1.0000
vn -0.4756 -0.7985 -0.3691
vn -0.0099 0.0415 0.9991
vn 0.0006 0.0485 0.9988
vn 0.0056 0.0495 0.9988
vn -0.7910 -0.6112 0.0278
vn 0.1766 0.9737 0.1443
vn 0.3265 -0.4216 0.8459
vn 0.1958 0.2553 0.9468
vn 0.7925 0.6094 -0.0240
vn 0.7936 0.6081 -0.0228
vn 0.7929 0.6088 -0.0234
vn -0.0961 0.0753 0.9925
vn -0.0263 0.0512 0.9983
vn -0.1489 0.0934 0.9844
vn -0.4659 -0.0940 0.8798
vn 0.0456 0.0002 0.9990
vn 0.0453 0.0003 0.9990
vn 0.0462 -0.0000 0.9989
vn 0.4476 -0.4869 -0.7500
vn 0.5281 0.8473 -0.0567
vn 0.7851 0.5970 -0.1651
vn 0.4790 0.8770 -0.0382
vn 0.7601 0.6492 -0.0276
vn 0.7661 0.6423 -0.0211
vn 0.7720 0.6352 -0.0245
vn 0.9918 -0.1272 0.0095
vn 0.9972 -0.0741 -0.0117
vn 0.9980 -0.0605 -0.0171
vn 0.7552 0.0928 0.6488
vn -0.5628 -0.6694 0.4849
vn -1.0000 -0.0000 -0.0000
vn -0.0571 -0.6806 0.7304
vn 0.0089 -0.0021 1.0000
vn 0.0168 0.0002 0.9999
vn 0.0194 -0.0012 0.9998
vn 0.6295 0.5074 0.5884
vn -0.2277 0.7183 0.6574
vn 0.9994 0.0332 -0.0001
vn 0.9994 0.0343 -0.0012
vn 0.9994 0.0342 -0.0013
vn -0.4194 -0.1161 0.9003
vn -0.3272 -0.4315 -0.8407
vn 0.9999 -0.0134 -0.0010
vn -0.0360 -0.0063 0.9993
vn 0.0133 0.0645 0.9978
vn 0.0083 0.0538 0.9985
vn -0.7973 -0.1069 -0.5940
vn 0.9999 -0.0125 -0.0029
vn 0.9997 -0.0243 -0.0045
vn 0.9997 -0.0242 -0.0047
vn 0.7913 -0.6108 -0.0276
vn 0.7902 -0.6124 -0.0256
vn 0.7919 -0.6099 -0.0295
vn 0.2814 -0.8610 0.4237
vn -0.0139 -0.0001 -0.9999
vn -0.0174 0.0021 -0.9998
vn -0.0177 -0.0017 -0.9998
vn -0.2492 0.9680 0.0282
vn -0.2400 0.9707 0.0117
vn -0.2292 0.9733 -0.0072
vn -0.8127 0.5825 0.0123
vn -0.7619 0.6423 0.0830
vn -0.7761 0.6204 0.1126
vn -0.0921 0.5857 0.8052
vn 0.2699 -0.6279 -0.7300
vn 0.0544 0.0865 -0.9948
vn 0.0410 0.0425 -0.9983
vn 0.0397 -0.0084 0.9992
vn 0.0351 -0.0008 0.9994
vn 0.0390 -0.0037 0.9992
vn -0.0346 0.0185 -0.9992
vn -0.0401 0.0074 -0.9992
vn -0.0401 0.0045 -0.9992
vn 0.2018 -0.9788 -0.0338
vn 0.1895 -0.9817 -0.0191
vn 0.2121 -0.9773 0.0010
vn -0.0447 -0.0137 0.9989
vn 0.0130 0.0021 0.9999
vn -0.0099 -0.0060 0.9999
vn -0.9985 0.0337 0.0423
vn -0.9994 0.0340 0.0033
vn -0.9994 0.0338 0.0005
vn 0.1587 0.9580 0.2390
vn 0.7722 -0.3366 0.5389
vn -0.0488 -0.4916 0.8694
vn -0.0181 0.0549 0.9983
vn -0.0713 -0.0196 0.9973
vn -0.0950 -0.1999 0.9752
vn -0.1989 0.0889 0.9760
vn 0.0021 -0.0434 0.9991
vn -0.0365 -0.0175 0.9992
vn -0.9654 -0.1971 0.1706
vn -0.7902 -0.6115 -0.0412
vn -0.6733 0.7076 0.2145
vn 0.4974 0.7578 -0.4224
vn 0.3106 -0.9132 -0.2637
vn 0.0793 -0.0743 -0.9941
vn 0.1979 -0.0148 -0.9801
vn 0.2365 0.0051 -0.9716
vn -0.3333 0.9066 -0.2587
vn -0.9999 -0.0158 0.0007
vn -0.9999 -0.0150 0.0014
vn -0.9998 -0.0177 0.0023
vn -0.0000 -0.0000 -1.0000
vn 0.6611 0.5673 -0.4911
vn 0.0033 0.0018 -1.0000
vn 0.5248 -0.7567 -0.3898
vn -0.0791 -0.6017 -0.7948
vn 0.0021 -0.0004 -1.0000
vn -0.0026 0.0019 -1.0000
vn -0.7731 0.4574 -0.4394
vn -0.3608 0.9207 -0.1486
vn -0.1421 0.5627 -0.8143
vn -0.9980 0.0500 0.0383
vn -0.9615 0.2691 0.0548
vn -0.9991 -0.0206 0.0380
vn -0.2708 0.3939 -0.8784
vn -0.2442 -0.2970 -0.9231
vn 0.1877 0.3472 -0.9188
vn -0.5709 -0.2732 -0.7742
vn 0.5316 0.3212 -0.7837
vn -0.0746 -0.8674 -0.4919
vn -0.1868 -0.9821 0.0238
vn -0.1886 -0.9819 0.0188
vn -0.2108 -0.9775 -0.0001
vn -0.8135 -0.2662 -0.5170
vn -0.0100 -0.0388 -0.9992
vn -0.0086 -0.0417 -0.9991
vn -0.0110 -0.0367 -0.9993
vn 0.7657 -0.6192 -0.1739
vn -0.0006 -0.0440 -0.9990
vn -0.0010 -0.0518 -0.9987
vn 0.0025 -0.0479 -0.9988
vn 0.0019 0.7259 -0.6878
vn -0.0218 0.0039 -0.9998
vn -0.9999 -0.0157 0.0025
vn -0.9999 -0.0166 0.0021
vn -0.0607 -0.0452 -0.9971
vn -0.0000 0.0043 -1.0000
vn -0.0977 -0.0754 -0.9924
vn -0.1826 0.0265 -0.9828
vn -0.2077 0.0103 -0.9781
vn -0.0703 0.0455 -0.9965
vn -0.9999 -0.0143 0.0021
vn -0.9998 -0.0166 0.0055
vn -0.7917 -0.6104 0.0236
vn 0.9855 0.0786 -0.1506
vn -0.0202 0.0655 -0.9976
vn 0.2375 0.9703 -0.0456
vn 0.2268 0.9728 -0.0479
vn 0.2623 0.9650 0.0078
vn 0.2294 0.9733 0.0069
vn -0.0478 -0.0057 -0.9988
vn -0.0426 -0.0097 -0.9990
vn 0.0793 -0.0839 0.9933
vn 0.0475 0.0059 0.9989
vn -0.0000 0.0037 1.0000
vn 0.0040 0.0469 0.9989
vn -0.0405 0.0251 0.9989
vn 0.0070 0.0493 0.9988
vn -0.7931 -0.6084 0.0311
vn -0.7889 -0.6140 0.0246
vn 0.7924 0.6096 -0.0243
vn 0.7942 0.6072 -0.0242
vn 0.7942 0.6072 -0.0222
vn 0.0145 0.0370 0.9992
vn 0.0444 0.0007 0.9990
vn 0.8214 0.5402 -0.1830
vn 0.7571 0.6526 -0.0309
vn 0.7620 0.6471 -0.0265
vn 0.7979 0.6023 -0.0239
vn 0.9891 -0.1463 0.0172
vn 0.0080 -0.0037 1.0000
vn 0.9995 0.0331 -0.0000
vn 0.9994 0.0354 -0.0000
vn 0.9994 0.0354 -0.0024
vn 1.0000 0.0002 0.0009
vn -0.0876 -0.5286 0.8444
vn 0.5875 0.1626 0.7927
vn 0.9997 -0.0217 -0.0057
vn 0.7931 -0.6084 -0.0311
vn 0.7889 -0.6141 -0.0226
vn -0.0079 -0.0042 -1.0000
vn -0.0137 0.0042 -0.9999
vn -0.2598 0.9645 0.0471
vn -0.8277 0.5611 -0.0048
vn -0.7959 0.6046 0.0310
vn -0.7801 0.6238 -0.0473
vn -0.6720 0.7399 0.0305
vn -0.0040 0.0469 -0.9989
vn -0.0530 0.0111 -0.9985
vn -0.2420 0.2220 -0.9445
vn 0.0542 0.0846 -0.9949
vn 0.0581 0.0822 -0.9949
vn -0.0011 0.0419 -0.9991
vn 0.0443 -0.0084 0.9990
vn 0.0367 -0.0143 0.9992
vn -0.0362 0.0147 -0.9992
vn -0.0361 0.0133 -0.9993
vn -0.0441 0.0086 -0.9990
vn -0.0421 -0.0001 -0.9991
vn 0.2179 -0.9748 -0.0481
vn 0.1631 -0.9854 -0.0493
vn -0.1031 -0.0333 0.9941
vn 0.0128 0.0146 0.9998
vn -0.9994 0.0342 0.0005
vn -0.9995 0.0331 -0.0000
vn -0.5328 0.0171 0.8460
vn -0.8981 0.3693 0.2386
vn -0.9994 0.0330 0.0032
vn 0.9999 -0.0142 -0.0000
vn 0.0371 0.1617 0.9861
vn 0.0132 0.0063 0.9999
vn -0.1865 -0.5814 0.7919
vn -0.4622 0.2666 0.8458
vn 0.0041 -0.0468 0.9989
vn -0.0006 -0.0432 0.9991
vn 0.0320 -0.0975 -0.9947
vn -0.9999 -0.0166 -0.0000
vn -0.9999 -0.0143 -0.0000
vn -0.0000 -0.0033 -1.0000
vn -0.0000 0.0037 -1.0000
vn -0.0128 0.0030 -0.9999
vn -0.9994 0.0332 0.0062
vn -0.9994 0.0330 0.0042
vn -0.9866 -0.1552 -0.0508
vn -0.2175 -0.9747 0.0507
vn -0.1600 -0.9857 0.0521
vn -0.0145 -0.0369 -0.9992
vn -0.0090 -0.0461 -0.9989
vn -0.0135 -0.0197 -0.9997
vn -0.0072 -0.0492 -0.9988
vn -0.0006 -0.0604 -0.9982
vn -0.1606 -0.1268 -0.9788
vn -0.0420 0.0620 -0.9972
vn -0.1855 0.0639 -0.9806
vt 0.568896 0.000000
vt 0.625000 0.215264
vt 0.375000 0.250000
vt 0.575535 0.250000
vt 0.625000 0.500000
vt 0.375000 0.458938
vt 0.625000 0.282469
vt 0.625000 0.250000
vt 0.339315 0.750000
vt 0.375000 0.702472
vt 0.510072 0.750000
vt 0.333938 0.500000
vt 0.125000 0.750000
vt 0.625000 0.515512
vt 0.625000 0.750000
vt 0.625000 0.546627
vt 0.625000 0.704373
vt 0.625000 0.000000
vt 0.625000 0.898084
vt 0.625000 1.000000
vt 0.625000 1.000000
vt 0.625000 0.229073
vt 0.625000 0.474050
vt 0.625000 0.250000
vt 0.625000 0.239537
vt 0.625000 0.782595
vt 0.625000 0.264146
vt 0.625000 0.197922
vt 0.625000 0.320581
vt 0.625000 0.704245
vt 0.625000 0.785513
vt 0.625000 0.287651
vt 0.375000 0.521745
vt 0.625000 0.965803
vt 0.625000 0.845508
vt 0.625000 0.172945
vt 0.608967 0.750000
vt 0.625000 0.424252
vt 0.125000 0.734788
vt 0.375000 0.967344
vt 0.519903 0.000000
vt 0.625000 0.228034
vt 0.625000 0.274529
vt 0.587347 0.500000
vt 0.625000 0.696367
vt 0.375000 0.750000
vt 0.608571 0.750000
vt 0.375000 0.213376
vt 0.152283 0.500000
vt 0.625000 0.711313
vt 0.625000 0.830745
vt 0.625000 0.383726
vt 0.625000 0.160418
vt 0.625000 0.018212
vt 0.625000 0.801212
vt 0.625000 0.397712
vt 0.625000 0.779338
vt 0.625000 0.335419
vt 0.625000 0.250000
vt 0.625000 0.967025
vt 0.625000 0.081970
vt 0.568896 1.000000
vt 0.625000 0.930390
vt 0.625000 0.473687
vt 0.625000 0.535421
vt 0.375000 0.500000
vt 0.625000 0.233881
vt 0.625000 0.250000
vt 0.625000 0.892335
vt 0.625000 0.285659
vt 0.625000 0.374028
vt 0.625000 0.453773
vt 0.625000 0.783186
vt 0.625000 0.722051
vt 0.375000 0.000000
vt 0.125000 0.500000
vt 0.519903 1.000000
vt 0.375000 0.015212
vt 0.375000 1.000000
vt 0.375000 0.785685
vt 0.125000 0.536624
vt 0.157656 0.750000
vt 0.375000 0.277283
s 1
f 81/1/1 42/2/1 2/3/1
f 41/4/2 3/5/3 16/6/2
f 39/7/4 42/2/4 40/8/4
f 87/9/5 89/10/5 88/11/5
f 16/12/6 89/10/6 1/13/6
f 37/14/7 4/5/8 119/15/9
f 18/16/10 113/17/11 17/15/12
f 14/18/13 31/8/14 15/8/15
f 122/19/16 33/20/17 14/21/18
f 6/18/19 10/8/20 22/22/21
f 23/23/22 24/24/22 26/25/22
f 27/5/23 23/23/23 18/16/23
f 111/26/24 12/15/25 9/20/26
f 7/8/27 21/27/28 11/5/29
f 104/28/30 52/8/30 105/29/30
f 39/7/31 15/8/32 38/5/33
f 83/30/34 85/15/34 84/31/34
f 29/32/35 24/24/36 27/5/37
f 4/5/38 18/16/10 17/15/12
f 20/8/39 22/22/39 21/27/39
f 25/8/40 23/23/40 26/25/40
f 22/22/41 19/8/41 21/27/41
f 26/25/42 116/18/43 7/8/44
f 23/23/45 7/8/46 8/5/47
f 16/6/48 3/5/48 34/33/48
f 11/5/49 19/8/50 10/8/51
f 30/20/52 32/34/52 118/35/52
f 31/8/53 32/34/54 29/32/55
f 30/18/56 114/36/57 24/24/58
f 28/8/59 32/34/60 30/18/61
f 29/32/62 15/8/62 31/8/62
f 8/5/63 18/16/63 23/23/63
f 3/5/64 86/37/64 89/10/64
f 37/14/65 36/38/65 35/5/65
f 36/38/66 29/32/67 4/5/68
f 39/7/69 41/4/69 42/2/69
f 37/14/70 38/5/70 36/38/70
f 42/2/71 82/18/72 15/8/73
f 65/39/74 66/40/74 67/41/74
f 47/42/75 96/8/75 98/43/75
f 92/44/1 63/45/76 45/46/1
f 62/47/77 43/20/78 66/40/79
f 90/48/80 44/8/80 91/49/80
f 59/5/81 50/15/82 60/15/83
f 49/5/84 78/50/85 77/15/86
f 61/15/87 64/51/87 63/45/87
f 99/52/88 48/8/89 49/5/90
f 52/8/91 55/18/92 56/8/93
f 73/53/94 51/18/95 104/28/96
f 70/54/97 68/20/97 69/55/97
f 105/29/98 109/56/99 53/5/100
f 76/57/101 58/15/102 55/20/103
f 108/58/104 52/8/105 57/5/106
f 78/50/107 57/5/108 58/15/109
f 64/51/110 60/15/111 68/20/112
f 43/18/113 100/59/114 47/42/115
f 64/51/116 62/47/116 63/45/116
f 63/45/76 94/5/76 60/15/83
f 77/15/117 78/50/117 76/57/117
f 67/41/64 44/8/64 90/48/64
f 71/18/118 70/54/118 69/55/118
f 69/55/119 50/15/120 75/20/121
f 74/60/122 77/15/123 51/20/124
f 72/18/125 73/53/125 74/60/125
f 76/57/126 78/50/126 54/15/126
f 73/53/127 75/20/127 74/60/127
f 79/61/128 81/62/128 80/63/128
f 82/18/129 79/61/129 80/63/129
f 82/20/130 122/19/131 14/21/132
f 86/37/133 83/30/133 84/31/133
f 83/30/134 38/5/135 13/15/136
f 88/11/137 84/31/137 81/62/137
f 92/44/138 93/64/138 95/65/138
f 91/49/6 45/46/6 65/39/6
f 44/8/139 92/44/137 46/66/137
f 95/65/140 93/64/140 94/5/140
f 102/67/141 101/68/141 99/52/141
f 93/64/142 98/43/143 99/52/88
f 97/8/144 47/42/144 98/43/144
f 114/36/145 115/20/145 117/69/145
f 100/59/146 102/67/146 99/52/146
f 102/67/147 71/18/148 73/53/149
f 103/8/150 104/28/150 105/29/150
f 106/70/151 108/58/151 110/71/151
f 107/72/152 109/56/152 110/71/152
f 110/71/153 108/58/153 107/72/153
f 110/71/154 109/56/154 106/70/154
f 112/15/155 111/26/155 113/17/155
f 113/17/156 11/5/157 12/15/158
f 113/17/159 111/26/159 17/15/159
f 117/69/160 111/26/161 6/20/162
f 114/36/163 117/69/163 116/18/163
f 5/15/164 117/69/165 30/20/166
f 33/20/167 118/35/167 32/34/167
f 119/15/168 120/73/168 123/15/168
f 121/74/169 119/15/9 123/15/170
f 80/63/171 85/15/172 13/15/173
f 122/19/174 120/73/175 5/15/176
f 123/15/168 120/73/168 13/15/168
f 123/15/170 13/15/136 121/74/169
f 2/3/1 1/75/1 81/1/1
f 81/1/1 79/61/1 42/2/1
f 42/2/1 41/4/1 2/3/1
f 16/6/2 2/3/2 41/4/2
f 41/4/2 39/7/31 3/5/3
f 1/13/6 2/76/6 16/12/6
f 16/12/6 34/33/6 89/10/6
f 89/10/6 87/9/6 1/13/6
f 121/74/169 13/15/136 37/14/7
f 37/14/7 35/5/177 4/5/8
f 4/5/8 5/15/178 119/15/9
f 119/15/9 121/74/169 37/14/7
f 18/16/10 8/5/179 113/17/11
f 14/18/13 33/18/180 31/8/14
f 122/19/16 118/35/181 33/20/17
f 20/8/182 7/8/183 6/18/19
f 6/18/19 9/18/184 10/8/20
f 10/8/20 19/8/185 22/22/21
f 22/22/21 20/8/182 6/18/19
f 9/20/26 6/20/186 111/26/24
f 111/26/24 112/15/187 12/15/25
f 11/5/29 8/5/188 7/8/27
f 7/8/27 20/8/189 21/27/28
f 38/5/33 3/5/3 39/7/31
f 39/7/31 40/8/190 15/8/32
f 15/8/32 36/38/66 38/5/33
f 27/5/37 4/5/191 29/32/35
f 29/32/35 28/8/192 24/24/36
f 24/24/36 23/23/193 27/5/37
f 17/15/12 5/15/194 4/5/38
f 4/5/38 27/5/195 18/16/10
f 7/8/44 25/8/196 26/25/42
f 26/25/42 114/36/197 116/18/43
f 116/18/43 6/18/198 7/8/44
f 23/23/45 25/8/199 7/8/46
f 11/5/49 21/27/200 19/8/50
f 31/8/53 33/20/201 32/34/54
f 24/24/58 28/8/202 30/18/56
f 30/18/56 115/18/203 114/36/57
f 114/36/57 26/25/204 24/24/58
f 28/8/59 29/32/205 32/34/60
f 89/10/64 34/33/64 3/5/64
f 3/5/64 83/30/64 86/37/64
f 86/37/64 88/11/64 89/10/64
f 4/5/68 35/5/206 36/38/66
f 36/38/66 15/8/32 29/32/67
f 15/8/73 40/8/207 42/2/71
f 42/2/71 79/61/208 82/18/72
f 82/18/72 14/18/209 15/8/73
f 45/46/1 46/66/1 92/44/1
f 92/44/1 95/65/210 63/45/76
f 63/45/76 62/47/1 45/46/1
f 66/40/79 45/46/2 62/47/77
f 62/47/77 64/51/211 43/20/78
f 43/20/78 67/77/212 66/40/79
f 59/5/81 49/5/213 50/15/82
f 77/15/86 50/15/214 49/5/84
f 49/5/84 53/5/215 78/50/85
f 49/5/90 59/5/216 99/52/88
f 99/52/88 101/68/217 48/8/89
f 52/8/91 51/18/218 55/18/92
f 103/8/219 48/8/220 73/53/94
f 73/53/94 72/18/221 51/18/95
f 51/18/95 52/8/222 104/28/96
f 104/28/96 103/8/219 73/53/94
f 53/5/100 49/5/223 48/8/224
f 48/8/224 103/8/225 105/29/98
f 105/29/98 52/8/226 106/70/227
f 109/56/99 107/72/228 53/5/100
f 105/29/98 106/70/227 109/56/99
f 53/5/100 48/8/224 105/29/98
f 55/20/103 51/20/229 76/57/101
f 76/57/101 54/15/230 58/15/102
f 57/5/106 53/5/231 107/72/232
f 108/58/104 106/70/233 52/8/105
f 57/5/106 107/72/232 108/58/104
f 52/8/105 56/8/234 57/5/106
f 58/15/109 54/15/235 78/50/107
f 78/50/107 53/5/236 57/5/108
f 68/20/112 43/20/237 64/51/110
f 64/51/110 61/15/190 60/15/111
f 60/15/111 69/55/238 68/20/112
f 97/8/239 44/8/240 43/18/113
f 43/18/113 68/18/241 70/54/242
f 70/54/242 102/67/147 100/59/114
f 100/59/114 96/8/243 47/42/115
f 47/42/115 97/8/239 43/18/113
f 43/18/113 70/54/242 100/59/114
f 60/15/83 61/15/244 63/45/76
f 63/45/76 95/65/210 94/5/76
f 94/5/76 59/5/81 60/15/83
f 90/48/64 65/78/64 67/41/64
f 67/41/64 43/18/64 44/8/64
f 75/20/121 71/20/245 69/55/119
f 69/55/119 60/15/246 50/15/120
f 50/15/120 74/60/247 75/20/121
f 51/20/124 72/20/248 74/60/122
f 74/60/122 50/15/249 77/15/123
f 77/15/123 76/57/250 51/20/124
f 82/20/130 80/63/251 122/19/131
f 13/15/136 85/15/252 83/30/134
f 83/30/134 3/5/253 38/5/135
f 38/5/135 37/14/7 13/15/136
f 1/79/137 87/80/137 88/11/137
f 88/11/137 86/37/137 84/31/137
f 84/31/137 80/63/137 81/62/137
f 81/62/137 1/79/137 88/11/137
f 65/39/6 90/81/6 91/49/6
f 91/49/6 46/66/6 45/46/6
f 45/46/6 66/82/6 65/39/6
f 46/66/137 91/83/137 44/8/139
f 44/8/139 93/64/142 92/44/137
f 59/5/216 94/5/254 93/64/142
f 93/64/142 44/8/139 97/8/255
f 98/43/143 96/8/255 100/59/256
f 93/64/142 97/8/255 98/43/143
f 99/52/88 59/5/216 93/64/142
f 98/43/143 100/59/256 99/52/88
f 48/8/257 101/68/258 102/67/147
f 102/67/147 70/54/242 71/18/148
f 71/18/148 75/18/259 73/53/149
f 73/53/149 48/8/257 102/67/147
f 12/15/158 112/15/260 113/17/156
f 113/17/156 8/5/261 11/5/157
f 6/20/162 116/20/262 117/69/160
f 117/69/160 17/15/263 111/26/161
f 30/20/166 118/35/264 5/15/164
f 5/15/164 17/15/265 117/69/165
f 117/69/165 115/20/266 30/20/166
f 13/15/173 122/19/267 80/63/171
f 80/63/171 84/31/172 85/15/172
f 5/15/176 118/35/268 122/19/174
f 122/19/174 13/15/269 120/73/175
f 120/73/175 119/15/168 5/15/176
