# Blender 4.5.3 LTS
# www.blender.org
o Pointer
v 0.000000 -1.000000 -0.692312
v 0.000000 1.000000 -0.692312
v 0.489538 -1.000000 -0.489538
v 0.489538 1.000000 -0.489538
v 0.692312 -1.000000 -0.000000
v 0.692312 1.000000 -0.000000
v 0.489538 -1.000000 0.489538
v 0.489538 1.000000 0.489538
v 0.000000 -1.000000 0.692312
v 0.000000 1.000000 0.692312
v -0.489538 -1.000000 0.489538
v -0.489538 1.000000 0.489538
v -0.692312 -1.000000 -0.000000
v -0.692312 1.000000 -0.000000
v -0.489538 -1.000000 -0.489538
v -0.489538 1.000000 -0.489538
v 0.787309 1.020699 -0.787309
v 0.000000 1.020699 -1.113423
v 1.113423 1.020699 -0.000000
v 0.787309 1.020699 0.787309
v 0.000000 1.020699 1.113423
v -0.787309 1.020699 0.787309
v -1.113423 1.020699 -0.000000
v -0.787309 1.020699 -0.787309
v 0.000000 3.217366 -0.000000
vn 0.3827 -0.0000 -0.9239
vn 0.9239 -0.0000 -0.3827
vn 0.9239 -0.0000 0.3827
vn 0.3827 -0.0000 0.9239
vn -0.3827 -0.0000 0.9239
vn -0.9239 -0.0000 0.3827
vn 0.0491 -0.9986 0.0203
vn -0.9239 -0.0000 -0.3827
vn -0.3827 -0.0000 -0.9239
vn -0.0000 -1.0000 -0.0000
vn -0.8367 0.4241 -0.3466
vn -0.0491 -0.9986 0.0203
vn 0.0203 -0.9986 0.0491
vn -0.0491 -0.9986 -0.0203
vn 0.0491 -0.9986 -0.0203
vn -0.0203 -0.9986 0.0491
vn -0.0203 -0.9986 -0.0491
vn 0.0203 -0.9986 -0.0491
vn -0.3466 0.4241 0.8367
vn 0.8367 0.4241 0.3466
vn 0.3466 0.4241 -0.8367
vn -0.3466 0.4241 -0.8367
vn -0.8367 0.4241 0.3466
vn 0.3466 0.4241 0.8367
vn 0.8367 0.4241 -0.3466
vt 1.000000 1.000000
vt 0.875000 0.500000
vt 1.000000 0.500000
vt 0.875000 1.000000
vt 0.750000 0.500000
vt 0.750000 1.000000
vt 0.625000 0.500000
vt 0.625000 1.000000
vt 0.500000 0.500000
vt 0.500000 1.000000
vt 0.375000 0.500000
vt 0.375000 1.000000
vt 0.250000 0.500000
vt 0.250000 1.000000
vt 0.125000 0.500000
vt 0.125000 1.000000
vt 0.000000 0.500000
vt 0.919706 0.080294
vt 0.580294 0.080294
vt 0.580294 0.419706
vt 0.000000 1.000000
vt 0.750000 0.490000
vt 0.919706 0.419706
vt 0.990000 0.250000
vt 0.750000 0.010000
vt 0.510000 0.250000
s 0
f 2/1/1 3/2/1 1/3/1
f 4/4/2 5/5/2 3/2/2
f 6/6/3 7/7/3 5/5/3
f 8/8/4 9/9/4 7/7/4
f 10/10/5 11/11/5 9/9/5
f 12/12/6 13/13/6 11/11/6
f 6/6/7 20/8/7 8/8/7
f 14/14/8 15/15/8 13/13/8
f 16/16/9 1/17/9 15/15/9
f 7/18/10 11/19/10 15/20/10
f 24/16/11 23/14/11 25/16/11
f 14/14/12 22/12/12 23/14/12
f 10/10/13 20/8/13 21/10/13
f 14/14/14 24/16/14 16/16/14
f 6/6/15 17/4/15 19/6/15
f 10/10/16 22/12/16 12/12/16
f 2/21/17 24/16/17 18/21/17
f 2/1/18 17/4/18 4/4/18
f 22/12/19 21/10/19 25/12/19
f 20/8/20 19/6/20 25/8/20
f 17/4/21 18/1/21 25/4/21
f 18/21/22 24/16/22 25/21/22
f 23/14/23 22/12/23 25/14/23
f 21/10/24 20/8/24 25/10/24
f 19/6/25 17/4/25 25/6/25
f 2/1/1 4/4/1 3/2/1
f 4/4/2 6/6/2 5/5/2
f 6/6/3 8/8/3 7/7/3
f 8/8/4 10/10/4 9/9/4
f 10/10/5 12/12/5 11/11/5
f 12/12/6 14/14/6 13/13/6
f 6/6/7 19/6/7 20/8/7
f 14/14/8 16/16/8 15/15/8
f 16/16/9 2/21/9 1/17/9
f 15/20/10 1/22/10 3/23/10
f 3/23/10 5/24/10 7/18/10
f 7/18/10 9/25/10 11/19/10
f 11/19/10 13/26/10 15/20/10
f 15/20/10 3/23/10 7/18/10
f 14/14/12 12/12/12 22/12/12
f 10/10/13 8/8/13 20/8/13
f 14/14/14 23/14/14 24/16/14
f 6/6/15 4/4/15 17/4/15
f 10/10/16 21/10/16 22/12/16
f 2/21/17 16/16/17 24/16/17
f 2/1/18 18/1/18 17/4/18
