# Blender 4.5.3 LTS
# www.blender.org
o Enemy_Skull_1
v -0.252054 -0.468349 0.253322
v -0.286330 -0.349536 0.187464
v -0.310831 -0.445405 0.063963
v -0.335620 -0.336583 0.077149
v 0.256928 -0.468349 0.253322
v 0.291204 -0.349536 0.187464
v 0.315696 -0.445405 0.063963
v 0.340484 -0.336583 0.077149
v 0.002490 -0.511233 0.465781
v 0.002648 -0.431563 0.603216
v 0.002648 -0.573931 0.640159
v 0.002648 -0.412028 0.699799
v -0.247922 -0.483044 -0.035082
v -0.160774 -0.400748 0.606706
v -0.247922 -0.367368 0.073418
v -0.177123 -0.508511 0.593649
v 0.252772 -0.367368 0.073418
v 0.182104 -0.508511 0.593649
v 0.252772 -0.483044 -0.035082
v 0.165755 -0.400748 0.606706
v -0.148860 -0.422997 0.532518
v 0.151735 -0.424003 0.540822
v -0.240102 -0.349072 0.180221
v 0.234513 -0.353144 0.213826
v -0.372881 -0.020528 0.072649
v -0.372881 -0.024379 -0.093791
v -0.346712 -0.347611 -0.031149
v -0.276572 -0.386264 -0.030297
v 0.344921 -0.055383 -0.093108
v 0.378106 -0.024379 -0.093791
v 0.351717 -0.347611 -0.031149
v 0.378106 -0.020528 0.072649
v -0.339667 -0.055383 -0.093108
v 0.281583 -0.386264 -0.030297
v -0.329005 -0.007691 0.031915
v 0.319925 -0.006945 0.065758
vn -0.9543 -0.1247 0.2717
vn -0.9523 -0.1189 0.2812
vn -0.9526 -0.1198 0.2796
vn 0.9725 0.2069 -0.1067
vn 0.9523 -0.1189 0.2811
vn 0.9543 -0.1249 0.2714
vn 0.9526 -0.1199 0.2795
vn -0.9666 0.1192 0.2269
vn 0.4901 -0.8714 0.0198
vn 0.9253 0.3568 -0.1289
vn -0.7392 0.6688 -0.0788
vn -0.0407 -0.9985 -0.0359
vn 0.3464 -0.3243 0.8803
vn 0.4393 0.8821 -0.1700
vn 0.9126 -0.1030 0.3956
vn -0.4901 -0.8714 0.0199
vn 0.1777 0.9646 -0.1951
vn -0.3458 -0.3243 0.8805
vn 0.9667 0.1192 0.2266
vn -0.9087 0.2856 -0.3045
vn 0.0407 -0.9985 -0.0359
vn -0.2459 0.8387 -0.4859
vn -0.5031 0.8642 -0.0040
vn 0.7432 0.6643 -0.0799
vn 0.2723 0.8323 -0.4828
vn -0.1780 0.9645 -0.1951
vn 0.0086 0.9929 0.1187
vn -0.9697 0.1960 -0.1460
vn -0.0347 0.9934 0.1096
vn 0.0348 0.9934 0.1096
vn -0.2471 -0.9119 -0.3277
vn 0.2473 -0.9117 -0.3280
vn 0.1007 -0.2041 -0.9738
vn -0.9630 0.1751 -0.2049
vn -0.8586 -0.2316 -0.4574
vn 0.9499 0.1269 -0.2855
vn -0.0079 0.9929 0.1189
vn -0.1006 -0.2040 -0.9738
vn 0.2298 0.9730 -0.0225
vn 0.6503 0.6897 -0.3185
vn -0.2995 0.9538 -0.0221
vn -0.6518 0.6907 -0.3132
vn 0.3903 0.2790 0.8774
vn -0.9931 -0.1170 0.0027
vn 0.1409 0.3590 0.9226
vn 0.9922 -0.0599 0.1090
vn 0.3855 -0.7124 -0.5865
vn -0.9643 -0.2345 0.1227
vn -0.9924 -0.0595 0.1077
vn 0.9642 -0.2346 0.1239
vn -0.8949 -0.2487 0.3706
vn 0.9669 0.1997 -0.1586
vn 0.8949 -0.2487 0.3706
vn -0.9545 -0.1254 0.2705
vn 0.4970 -0.0297 0.8672
vn 0.9665 0.1756 -0.1873
vn 0.9930 -0.1182 0.0027
vn 0.1738 0.9506 -0.2572
vn -0.4963 -0.0298 0.8676
vn 0.9546 -0.1256 0.2703
vn -0.9495 0.1273 -0.2869
vn -0.8382 0.3731 -0.3978
vn -0.1713 0.9399 -0.2953
vn 0.1677 -0.2007 -0.9652
vn -0.9733 0.1783 -0.1446
vn -0.3853 -0.7121 -0.5869
vn 0.9096 0.2843 -0.3031
vn -0.1674 -0.2006 -0.9653
vn -0.0328 0.3370 0.9409
vn -0.9127 -0.1020 0.3958
vn 0.5333 0.4501 0.7163
vn 0.8585 -0.2330 -0.4569
vt 0.457368 0.978483
vt 0.461966 0.977025
vt 0.459169 0.982262
vt 0.466451 0.954202
vt 0.477722 0.953773
vt 0.466693 0.957522
vt 0.461966 0.954548
vt 0.457376 0.953283
vt 0.459172 0.949702
vt 0.451192 0.990078
vt 0.454150 0.991615
vt 0.494999 0.970731
vt 0.496928 0.973603
vt 0.492833 0.989954
vt 0.463736 0.970556
vt 0.492102 0.957125
vt 0.485086 0.969519
vt 0.483295 0.970731
vt 0.479651 0.970731
vt 0.487327 0.986075
vt 0.481821 0.989954
vt 0.481077 0.970731
vt 0.478714 0.964201
vt 0.483295 0.965268
vt 0.477722 0.970556
vt 0.471864 0.987304
vt 0.467676 0.984373
vt 0.459014 0.956036
vt 0.451201 0.961561
vt 0.477722 0.973603
vt 0.466936 0.988664
vt 0.471840 0.989643
vt 0.466442 0.991615
vt 0.481077 0.960655
vt 0.451201 0.942528
vt 0.454124 0.940884
vt 0.494426 0.954958
vt 0.496928 0.956574
vt 0.462733 0.986048
vt 0.461966 0.971534
vt 0.463231 0.968275
vt 0.461966 0.988009
vt 0.448339 0.978323
vt 0.449760 0.991419
vt 0.448339 0.991615
vt 0.489212 0.960292
vt 0.462904 0.970556
vt 0.462904 0.953947
vt 0.463231 0.959968
vt 0.461966 0.953963
vt 0.462292 0.964542
vt 0.461966 0.970556
vt 0.487332 0.991615
vt 0.479499 0.950152
vt 0.481396 0.959113
vt 0.479499 0.960655
vt 0.483295 0.950432
vt 0.487356 0.947445
vt 0.470711 0.949771
vt 0.470711 0.946409
vt 0.473253 0.947930
vt 0.466239 0.950908
vt 0.476644 0.949802
vt 0.449760 0.978308
vt 0.451192 0.979580
vt 0.449760 0.991615
vt 0.483295 0.950588
vt 0.481396 0.959549
vt 0.481396 0.949047
vt 0.474515 0.949771
vt 0.473253 0.944699
vt 0.475041 0.944699
vt 0.477678 0.949771
vt 0.469361 0.944671
vt 0.470711 0.945894
vt 0.469361 0.949771
vt 0.473489 0.949702
vt 0.479499 0.949659
vt 0.477753 0.960615
vt 0.477753 0.948862
vt 0.459025 0.975420
vt 0.451192 0.969726
vt 0.454196 0.965611
vt 0.449439 0.965611
vt 0.451201 0.954820
vt 0.450819 0.965488
vt 0.461215 0.958475
vt 0.454257 0.965611
vt 0.465910 0.949771
vt 0.465113 0.946608
vt 0.467270 0.946608
vt 0.461207 0.972877
vt 0.477889 0.969887
vt 0.463231 0.950560
vt 0.477889 0.960728
vt 0.488775 0.969082
vt 0.480326 0.949045
vt 0.467270 0.946507
vt 0.469361 0.949241
vt 0.467270 0.949771
vt 0.482225 0.960655
vt 0.479391 0.960655
vt 0.449439 0.954438
vt 0.475041 0.949771
vt 0.475041 0.946381
vt 0.477722 0.947489
s 1
f 2/1/1 3/2/2 1/3/3
f 15/4/4 35/5/4 23/6/4
f 7/7/5 6/8/6 5/9/7
f 14/10/8 1/3/8 16/11/8
f 19/12/9 7/13/9 18/14/9
f 15/4/10 23/6/10 14/15/10
f 17/16/11 22/17/11 20/18/11
f 13/19/12 9/20/12 16/21/12
f 18/22/13 12/23/13 11/24/13
f 13/25/14 21/26/14 9/27/14
f 8/28/15 32/29/15 6/8/15
f 3/30/16 13/19/16 16/21/16
f 10/31/17 14/32/17 12/33/17
f 12/23/18 16/34/18 11/24/18
f 5/9/19 20/35/19 18/36/19
f 17/16/20 34/37/20 19/38/20
f 9/20/21 19/12/21 18/14/21
f 9/27/22 10/31/22 22/39/22
f 17/40/23 9/27/23 22/39/23
f 14/15/24 21/41/24 15/4/24
f 9/27/25 21/26/25 10/31/25
f 20/42/26 10/31/26 12/33/26
f 14/43/27 23/44/27 2/45/27
f 20/18/28 24/46/28 17/16/28
f 18/47/29 7/48/29 5/49/29
f 16/50/30 1/51/30 3/52/30
f 16/21/31 9/20/31 11/53/31
f 18/14/32 11/53/32 9/20/32
f 29/54/33 31/55/33 34/56/33
f 17/16/34 36/57/34 29/58/34
f 3/59/35 28/60/35 13/61/35
f 15/4/36 28/62/36 33/63/36
f 6/64/37 24/65/37 20/66/37
f 27/67/38 33/68/38 28/69/38
f 30/70/39 36/71/39 32/72/39
f 35/5/40 33/63/40 26/73/40
f 25/74/41 35/75/41 26/76/41
f 29/77/42 36/71/42 30/70/42
f 6/78/43 36/79/43 24/80/43
f 4/81/44 25/82/44 26/83/44
f 23/84/45 25/85/45 2/86/45
f 8/28/46 31/87/46 30/88/46
f 7/89/47 34/90/47 31/91/47
f 3/2/48 4/81/48 27/92/48
f 27/92/49 4/81/49 26/83/49
f 31/87/50 8/28/50 7/7/50
f 2/1/51 4/81/51 3/2/51
f 15/4/52 33/63/52 35/5/52
f 7/7/53 8/28/53 6/8/53
f 14/10/54 2/1/1 1/3/3
f 18/22/55 20/93/55 12/23/55
f 13/94/56 15/4/56 21/41/56
f 8/28/57 30/88/57 32/29/57
f 10/31/58 21/26/58 14/32/58
f 12/23/59 14/95/59 16/34/59
f 5/9/7 6/8/6 20/35/60
f 17/16/61 29/58/61 34/37/61
f 17/16/62 19/38/62 9/96/62
f 20/42/63 22/39/63 10/31/63
f 29/54/64 30/97/64 31/55/64
f 17/16/65 24/46/65 36/57/65
f 3/98/66 27/99/66 28/100/66
f 15/4/67 13/94/67 28/62/67
f 27/67/68 26/101/68 33/68/68
f 6/78/69 32/102/69 36/79/69
f 4/81/70 2/1/70 25/82/70
f 23/84/71 35/103/71 25/85/71
f 7/104/72 19/105/72 34/106/72
