# Blender 4.5.3 LTS
# www.blender.org
o Enemy_Skull_0
v -0.429744 -0.168817 0.681958
v -0.693532 0.771345 -0.064745
v -0.384486 -0.142762 -0.402135
v 0.429744 -0.168817 0.681958
v 0.714035 0.771345 -0.087830
v 0.384754 -0.142762 -0.402135
v 0.000134 -0.199673 -0.566180
v 0.000134 0.580625 -0.417767
v 0.017045 0.686768 0.269130
v -0.410272 -0.263743 0.116570
v -0.429722 0.535700 -0.023345
v 0.411635 -0.272343 0.110248
v 0.417243 0.535700 -0.023345
v 0.000134 0.633659 0.166516
v 0.000134 -0.328469 0.198942
v -0.421160 0.100201 0.557092
v -0.459811 0.197709 -0.366143
v 0.460080 0.197709 -0.366143
v 0.430827 0.100201 0.557092
v 0.006542 0.227372 -0.596519
v 0.531118 0.114568 0.116570
v -0.530850 0.114568 0.116570
v 0.011666 0.430913 0.665159
v -0.229974 -0.168817 0.700975
v 0.000000 -0.311228 0.473025
v 0.209992 -0.168817 0.700975
v -0.311016 -0.212608 0.574457
v 0.312700 -0.236592 0.601389
v -0.113378 -0.338310 0.703370
v -0.003050 -0.364470 0.703370
v -0.005157 -0.365318 0.583348
v 0.097691 -0.338310 0.703370
v -0.152257 -0.345502 0.640119
v 0.146964 -0.351079 0.644951
v 0.001382 -0.247543 0.802081
v 0.005398 0.028832 0.789071
v 0.309931 -0.212823 -0.156450
v -0.316512 -0.219764 -0.161436
v 0.000134 -0.129596 -0.117104
v 0.398334 -0.206476 -0.128961
v -0.398132 -0.206784 -0.127640
v -0.403348 -0.176635 -0.003124
v -0.365779 -0.188251 0.004235
v 0.364903 -0.190373 0.007293
v 0.404442 -0.182101 0.000476
v 0.086792 -0.354561 0.676646
v -0.097697 -0.349748 0.670781
v -0.119537 -0.384610 0.674137
v 0.108199 -0.387910 0.680138
vn -0.9742 0.1976 -0.1093
vn 0.4338 0.4131 -0.8008
vn 0.9208 0.3221 0.2201
vn 0.4166 -0.8968 0.1492
vn 0.0001 0.8881 -0.4597
vn 0.0007 0.8881 -0.4597
vn -0.0000 0.8881 -0.4596
vn -0.4598 0.3565 -0.8133
vn -0.0329 -0.9378 0.3457
vn 0.4509 0.0701 0.8898
vn -0.4259 0.4023 -0.8104
vn -0.2442 -0.9415 -0.2322
vn -0.2400 -0.9422 -0.2337
vn -0.2457 -0.9412 -0.2317
vn 0.5745 0.6176 -0.5372
vn -0.5695 0.6098 -0.5512
vn -0.2387 -0.9595 0.1497
vn 0.9683 0.2275 -0.1033
vn -0.9229 0.3012 0.2396
vn -0.9992 0.0148 -0.0369
vn 0.9594 -0.2366 -0.1534
vn -0.4211 -0.0311 -0.9065
vn 0.0783 0.4195 0.9044
vn 0.9346 -0.2919 0.2033
vn 0.4265 -0.0388 -0.9037
vn -0.9184 -0.2927 -0.2662
vn 0.1893 0.9779 -0.0888
vn -0.1838 0.9789 -0.0889
vn 0.4329 0.3378 -0.8358
vn -0.0006 0.8881 -0.4596
vn -0.5260 0.4533 0.7196
vn 0.5404 0.4532 0.7089
vn -0.1524 0.8311 0.5349
vn 0.1743 0.8260 0.5360
vn 0.4462 -0.7108 -0.5438
vn -0.5301 -0.6820 -0.5039
vn 0.1480 -0.9870 0.0622
vn 0.4098 -0.4364 0.8010
vn 0.3516 -0.8001 -0.4860
vn 0.0517 -0.8000 0.5978
vn 0.1882 -0.9761 0.1090
vn -0.2158 -0.9642 0.1544
vn -0.1676 -0.9839 0.0618
vn -0.2503 -0.9547 0.1609
vn 0.7506 -0.4212 0.5090
vn 0.0965 -0.9951 0.0197
vn -0.6729 -0.4876 0.5562
vn 0.5423 -0.4125 0.7319
vn -0.3748 -0.7798 -0.5014
vn 0.9994 -0.0173 -0.0285
vn -0.9291 -0.2961 0.2217
vn -0.0859 0.4217 0.9026
vn -0.4287 0.1108 0.8966
vn 0.4283 0.2600 0.8654
vn -0.4240 0.2728 0.8636
vn 0.0514 -0.7698 -0.6362
vn -0.0175 -0.8266 -0.5624
vn 0.2273 -0.9526 -0.2024
vn -0.2392 -0.9424 -0.2339
vn -0.2830 -0.8118 -0.5108
vn 0.3009 -0.8071 -0.5079
vn 0.3577 -0.9338 0.0079
vn 0.2514 -0.9563 0.1492
vn 0.9145 -0.4033 0.0328
vn 0.1411 -0.9625 -0.2315
vn -0.1614 -0.9711 0.1760
vn -0.9594 -0.2367 -0.1533
vn -0.1315 -0.7979 -0.5883
vn -0.3851 -0.9209 0.0606
vn -0.9041 -0.4223 0.0644
vn 0.9161 -0.2782 -0.2887
vn -0.0253 -0.7876 -0.6156
vn 0.0903 -0.9862 0.1387
vn -0.1385 -0.9899 0.0297
vn 0.2260 -0.8705 0.4372
vn -0.7292 -0.4108 0.5472
vn -0.2248 -0.9482 0.2246
vn 0.4372 -0.3535 -0.8269
vn -0.8185 -0.2249 0.5287
vn -0.4192 -0.3565 -0.8350
vn 0.7392 -0.1509 0.6564
vn -0.3742 -0.4239 0.8248
vt 0.451221 0.982728
vt 0.440616 0.982325
vt 0.450316 0.972301
vt 0.490363 0.959237
vt 0.498423 0.957300
vt 0.489734 0.966155
vt 0.469527 0.982560
vt 0.460174 0.985016
vt 0.467226 0.969614
vt 0.459799 0.958714
vt 0.460174 0.971869
vt 0.457549 0.969924
vt 0.468966 0.956412
vt 0.460174 0.955881
vt 0.470025 0.947924
vt 0.478415 0.956883
vt 0.475879 0.949381
vt 0.443340 0.969354
vt 0.445163 0.972301
vt 0.440616 0.971869
vt 0.482237 0.975911
vt 0.489839 0.979742
vt 0.487110 0.985578
vt 0.482971 0.983493
vt 0.489690 0.947397
vt 0.441580 0.947306
vt 0.443185 0.952637
vt 0.441321 0.953427
vt 0.480645 0.967844
vt 0.468772 0.968534
vt 0.450359 0.943484
vt 0.457436 0.952762
vt 0.450337 0.953798
vt 0.470602 0.993682
vt 0.449873 0.996349
vt 0.456362 0.996349
vt 0.459704 0.984225
vt 0.478517 0.992668
vt 0.478405 0.986283
vt 0.481939 0.949295
vt 0.480645 0.958798
vt 0.478517 0.981276
vt 0.478517 0.980639
vt 0.481976 0.964981
vt 0.457982 0.981433
vt 0.464524 0.948338
vt 0.497686 0.983697
vt 0.492491 0.973699
vt 0.497686 0.973634
vt 0.487512 0.968534
vt 0.493632 0.969105
vt 0.480645 0.943484
vt 0.441009 0.990833
vt 0.450473 0.966882
vt 0.450474 0.960631
vt 0.485260 0.989621
vt 0.483522 0.988080
vt 0.453849 0.970717
vt 0.450394 0.969294
vt 0.455175 0.972301
vt 0.441091 0.958872
vt 0.481535 0.966155
vt 0.481725 0.967388
vt 0.481103 0.966757
vt 0.452484 0.971430
vt 0.450446 0.972020
vt 0.481906 0.994862
vt 0.478517 0.994862
vt 0.479834 0.991312
vt 0.481421 0.990994
vt 0.479757 0.983746
vt 0.482123 0.987787
vt 0.447037 0.970617
vt 0.473228 0.968534
vt 0.495566 0.989868
vt 0.491699 0.987891
vt 0.458681 0.956518
vt 0.459575 0.956377
vt 0.442052 0.956452
vt 0.459085 0.947306
vt 0.477177 0.983548
vt 0.459445 0.953397
vt 0.441190 0.956305
vt 0.458926 0.978788
vt 0.458052 0.972677
vt 0.448282 0.971305
vt 0.452723 0.972065
vt 0.460167 0.973516
vt 0.459704 0.972928
vt 0.460167 0.972301
vt 0.447920 0.972065
vt 0.480645 0.967388
vt 0.480459 0.990190
vt 0.482502 0.967704
vt 0.481725 0.966517
vt 0.482502 0.966155
vt 0.482702 0.988964
vt 0.487709 0.990190
s 1
f 22/1/1 11/2/1 17/3/1
f 20/4/2 8/5/2 18/6/2
f 21/7/3 13/8/3 19/9/3
f 12/10/4 4/11/4 28/12/4
f 14/13/5 11/14/6 9/15/7
f 13/16/8 9/15/8 5/17/8
f 27/18/9 24/19/9 1/20/9
f 19/21/10 36/22/10 35/23/10 26/24/10
f 17/25/11 8/5/11 20/4/11
f 3/26/12 38/27/13 41/28/14
f 18/29/15 8/30/15 13/16/15
f 17/25/16 11/14/16 8/5/16
f 7/31/17 37/32/17 39/33/17
f 18/34/18 13/8/18 21/7/18
f 16/35/19 11/2/19 22/1/19
f 1/36/20 16/35/20 10/37/20
f 6/38/21 18/34/21 21/7/21 40/39/21
f 3/40/22 17/25/22 20/4/22 7/41/22
f 4/42/23 19/21/23 26/24/23
f 12/43/24 21/7/24 19/9/24
f 7/41/25 20/4/25 18/6/25 6/44/25
f 10/37/26 22/1/26 42/45/26
f 13/16/27 8/30/27 14/13/27
f 11/14/28 14/13/28 8/30/28
f 9/15/29 11/14/29 2/46/29
f 9/15/7 13/16/30 14/13/5
f 16/47/31 23/48/31 2/49/31
f 23/48/32 19/21/32 5/50/32
f 2/49/33 23/48/33 9/51/33
f 5/50/34 9/51/34 23/48/34
f 19/52/35 13/16/35 5/17/35
f 11/2/36 16/35/36 2/53/36
f 25/54/37 15/55/37 12/10/37
f 35/23/38 30/56/38 32/57/38 26/24/38
f 25/54/39 28/12/39 34/58/39 31/59/39
f 4/11/40 26/60/40 28/12/40
f 28/12/41 25/54/41 12/10/41
f 1/20/42 10/61/42 27/18/42
f 10/61/43 15/55/43 25/54/43
f 27/18/44 10/61/44 25/54/44
f 29/62/45 48/63/45 47/64/45
f 31/59/46 34/58/46 46/65/46 30/66/46
f 24/67/47 27/68/47 33/69/47 29/70/47
f 28/71/48 26/24/48 32/57/48 34/72/48
f 27/18/49 25/54/49 31/59/49 33/73/49
f 19/9/50 4/74/50 12/43/50
f 10/37/51 16/35/51 22/1/51
f 16/47/52 1/75/52 24/76/52
f 35/23/53 36/22/53 16/47/53 24/76/53
f 36/22/54 19/21/54 23/48/54
f 23/48/55 16/47/55 36/22/55
f 12/10/56 44/77/56 45/78/56
f 10/61/57 43/79/57 15/55/57
f 6/80/58 37/32/58 7/31/58
f 38/27/13 3/26/12 7/31/59
f 39/33/60 37/32/60 15/55/60
f 15/55/61 38/27/61 39/33/61
f 15/55/62 37/32/62 44/77/62
f 39/33/63 38/27/63 7/31/63
f 40/39/64 21/7/64 45/81/64
f 40/82/65 37/32/65 6/80/65
f 41/28/66 38/27/66 43/79/66 42/83/66
f 41/84/67 22/1/67 17/3/67 3/85/67
f 42/83/68 43/79/68 10/61/68
f 15/55/69 43/79/69 38/27/69
f 42/45/70 22/1/70 41/84/70
f 45/81/71 21/7/71 12/43/71
f 44/77/72 12/10/72 15/55/72
f 45/78/73 44/77/73 37/32/73 40/82/73
f 30/66/74 47/86/74 33/73/74 31/59/74
f 30/66/75 46/65/75 32/87/75
f 32/88/76 46/89/76 49/90/76
f 47/86/77 30/66/77 29/91/77
f 47/64/78 48/63/78 33/92/78
f 48/93/79 29/70/79 33/69/79
f 34/94/80 49/95/80 46/96/80
f 49/97/81 34/72/81 32/57/81
f 30/56/82 35/23/82 24/76/82 29/98/82
o Enemy_Skull_1
v -0.252054 -0.468349 0.253322
v -0.286330 -0.349536 0.187464
v -0.310831 -0.445405 0.063963
v -0.335620 -0.336583 0.077149
v 0.256928 -0.468349 0.253322
v 0.291204 -0.349536 0.187464
v 0.315696 -0.445405 0.063963
v 0.340484 -0.336583 0.077149
v 0.002490 -0.511233 0.465781
v 0.002648 -0.431563 0.603216
v 0.002648 -0.573931 0.640159
v 0.002648 -0.412028 0.699799
v -0.247922 -0.483044 -0.035082
v -0.160774 -0.400748 0.606706
v -0.247922 -0.367368 0.073418
v -0.177123 -0.508511 0.593649
v 0.252772 -0.367368 0.073418
v 0.182104 -0.508511 0.593649
v 0.252772 -0.483044 -0.035082
v 0.165755 -0.400748 0.606706
v -0.148860 -0.422997 0.532518
v 0.151735 -0.424003 0.540822
v -0.240102 -0.349072 0.180221
v 0.234513 -0.353144 0.213826
v -0.372881 -0.020528 0.072649
v -0.372881 -0.024379 -0.093791
v -0.346712 -0.347611 -0.031149
v -0.276572 -0.386264 -0.030297
v 0.344921 -0.055383 -0.093108
v 0.378106 -0.024379 -0.093791
v 0.351717 -0.347611 -0.031149
v 0.378106 -0.020528 0.072649
v -0.339667 -0.055383 -0.093108
v 0.281583 -0.386264 -0.030297
v -0.329005 -0.007691 0.031915
v 0.319925 -0.006945 0.065758
vn -0.9543 -0.1247 0.2717
vn -0.9523 -0.1189 0.2812
vn -0.9526 -0.1198 0.2796
vn 0.9725 0.2069 -0.1067
vn 0.9523 -0.1189 0.2811
vn 0.9543 -0.1249 0.2714
vn 0.9526 -0.1199 0.2795
vn -0.9666 0.1192 0.2269
vn 0.4901 -0.8714 0.0198
vn 0.9253 0.3568 -0.1289
vn -0.7392 0.6688 -0.0788
vn -0.0407 -0.9985 -0.0359
vn 0.3464 -0.3243 0.8803
vn 0.4393 0.8821 -0.1700
vn 0.9126 -0.1030 0.3956
vn -0.4901 -0.8714 0.0199
vn 0.1777 0.9646 -0.1951
vn -0.3458 -0.3243 0.8805
vn 0.9667 0.1192 0.2266
vn -0.9087 0.2856 -0.3045
vn 0.0407 -0.9985 -0.0359
vn -0.2459 0.8387 -0.4859
vn -0.5031 0.8642 -0.0040
vn 0.7432 0.6643 -0.0799
vn 0.2723 0.8323 -0.4828
vn -0.1780 0.9645 -0.1951
vn 0.0086 0.9929 0.1187
vn -0.9697 0.1960 -0.1460
vn -0.0347 0.9934 0.1096
vn 0.0348 0.9934 0.1096
vn -0.2471 -0.9119 -0.3277
vn 0.2473 -0.9117 -0.3280
vn 0.1007 -0.2041 -0.9738
vn -0.9630 0.1751 -0.2049
vn -0.8586 -0.2316 -0.4574
vn 0.9499 0.1269 -0.2855
vn -0.0079 0.9929 0.1189
vn -0.1006 -0.2040 -0.9738
vn 0.2298 0.9730 -0.0225
vn 0.6503 0.6897 -0.3185
vn -0.2995 0.9538 -0.0221
vn -0.6518 0.6907 -0.3132
vn 0.3903 0.2790 0.8774
vn -0.9931 -0.1170 0.0027
vn 0.1409 0.3590 0.9226
vn 0.9922 -0.0599 0.1090
vn 0.3855 -0.7124 -0.5865
vn -0.9643 -0.2345 0.1227
vn -0.9924 -0.0595 0.1077
vn 0.9642 -0.2346 0.1239
vn -0.8949 -0.2487 0.3706
vn 0.9669 0.1997 -0.1586
vn 0.8949 -0.2487 0.3706
vn -0.9545 -0.1254 0.2705
vn 0.4970 -0.0297 0.8672
vn 0.9665 0.1756 -0.1873
vn 0.9930 -0.1182 0.0027
vn 0.1738 0.9506 -0.2572
vn -0.4963 -0.0298 0.8676
vn 0.9546 -0.1256 0.2703
vn -0.9495 0.1273 -0.2869
vn -0.8382 0.3731 -0.3978
vn -0.1713 0.9399 -0.2953
vn 0.1677 -0.2007 -0.9652
vn -0.9733 0.1783 -0.1446
vn -0.3853 -0.7121 -0.5869
vn 0.9096 0.2843 -0.3031
vn -0.1674 -0.2006 -0.9653
vn -0.0328 0.3370 0.9409
vn -0.9127 -0.1020 0.3958
vn 0.5333 0.4501 0.7163
vn 0.8585 -0.2330 -0.4569
vt 0.457368 0.978483
vt 0.461966 0.977025
vt 0.459169 0.982262
vt 0.466451 0.954202
vt 0.477722 0.953773
vt 0.466693 0.957522
vt 0.461966 0.954548
vt 0.457376 0.953283
vt 0.459172 0.949702
vt 0.451192 0.990078
vt 0.454150 0.991615
vt 0.494999 0.970731
vt 0.496928 0.973603
vt 0.492833 0.989954
vt 0.463736 0.970556
vt 0.492102 0.957125
vt 0.485086 0.969519
vt 0.483295 0.970731
vt 0.479651 0.970731
vt 0.487327 0.986075
vt 0.481821 0.989954
vt 0.481077 0.970731
vt 0.478714 0.964201
vt 0.483295 0.965268
vt 0.477722 0.970556
vt 0.471864 0.987304
vt 0.467676 0.984373
vt 0.459014 0.956036
vt 0.451201 0.961561
vt 0.477722 0.973603
vt 0.466936 0.988664
vt 0.471840 0.989643
vt 0.466442 0.991615
vt 0.481077 0.960655
vt 0.451201 0.942528
vt 0.454124 0.940884
vt 0.494426 0.954958
vt 0.496928 0.956574
vt 0.462733 0.986048
vt 0.461966 0.971534
vt 0.463231 0.968275
vt 0.461966 0.988009
vt 0.448339 0.978323
vt 0.449760 0.991419
vt 0.448339 0.991615
vt 0.489212 0.960292
vt 0.462904 0.970556
vt 0.462904 0.953947
vt 0.463231 0.959968
vt 0.461966 0.953963
vt 0.462292 0.964542
vt 0.461966 0.970556
vt 0.487332 0.991615
vt 0.479499 0.950152
vt 0.481396 0.959113
vt 0.479499 0.960655
vt 0.483295 0.950432
vt 0.487356 0.947445
vt 0.470711 0.949771
vt 0.470711 0.946409
vt 0.473253 0.947930
vt 0.466239 0.950908
vt 0.476644 0.949802
vt 0.449760 0.978308
vt 0.451192 0.979580
vt 0.449760 0.991615
vt 0.483295 0.950588
vt 0.481396 0.959549
vt 0.481396 0.949047
vt 0.474515 0.949771
vt 0.473253 0.944699
vt 0.475041 0.944699
vt 0.477678 0.949771
vt 0.469361 0.944671
vt 0.470711 0.945894
vt 0.469361 0.949771
vt 0.473489 0.949702
vt 0.479499 0.949659
vt 0.477753 0.960615
vt 0.477753 0.948862
vt 0.459025 0.975420
vt 0.451192 0.969726
vt 0.454196 0.965611
vt 0.449439 0.965611
vt 0.451201 0.954820
vt 0.450819 0.965488
vt 0.461215 0.958475
vt 0.454257 0.965611
vt 0.465910 0.949771
vt 0.465113 0.946608
vt 0.467270 0.946608
vt 0.461207 0.972877
vt 0.477889 0.969887
vt 0.463231 0.950560
vt 0.477889 0.960728
vt 0.488775 0.969082
vt 0.480326 0.949045
vt 0.467270 0.946507
vt 0.469361 0.949241
vt 0.467270 0.949771
vt 0.482225 0.960655
vt 0.479391 0.960655
vt 0.449439 0.954438
vt 0.475041 0.949771
vt 0.475041 0.946381
vt 0.477722 0.947489
s 1
f 51/99/83 52/100/84 50/101/85
f 64/102/86 84/103/86 72/104/86
f 56/105/87 55/106/88 54/107/89
f 63/108/90 50/101/90 65/109/90
f 68/110/91 56/111/91 67/112/91
f 64/102/92 72/104/92 63/113/92
f 66/114/93 71/115/93 69/116/93
f 62/117/94 58/118/94 65/119/94
f 67/120/95 61/121/95 60/122/95
f 62/123/96 70/124/96 58/125/96
f 57/126/97 81/127/97 55/106/97
f 52/128/98 62/117/98 65/119/98
f 59/129/99 63/130/99 61/131/99
f 61/121/100 65/132/100 60/122/100
f 54/107/101 69/133/101 67/134/101
f 66/114/102 83/135/102 68/136/102
f 58/118/103 68/110/103 67/112/103
f 58/125/104 59/129/104 71/137/104
f 66/138/105 58/125/105 71/137/105
f 63/113/106 70/139/106 64/102/106
f 58/125/107 70/124/107 59/129/107
f 69/140/108 59/129/108 61/131/108
f 63/141/109 72/142/109 51/143/109
f 69/116/110 73/144/110 66/114/110
f 67/145/111 56/146/111 54/147/111
f 65/148/112 50/149/112 52/150/112
f 65/119/113 58/118/113 60/151/113
f 67/112/114 60/151/114 58/118/114
f 78/152/115 80/153/115 83/154/115
f 66/114/116 85/155/116 78/156/116
f 52/157/117 77/158/117 62/159/117
f 64/102/118 77/160/118 82/161/118
f 55/162/119 73/163/119 69/164/119
f 76/165/120 82/166/120 77/167/120
f 79/168/121 85/169/121 81/170/121
f 84/103/122 82/161/122 75/171/122
f 74/172/123 84/173/123 75/174/123
f 78/175/124 85/169/124 79/168/124
f 55/176/125 85/177/125 73/178/125
f 53/179/126 74/180/126 75/181/126
f 72/182/127 74/183/127 51/184/127
f 57/126/128 80/185/128 79/186/128
f 56/187/129 83/188/129 80/189/129
f 52/100/130 53/179/130 76/190/130
f 76/190/131 53/179/131 75/181/131
f 80/185/132 57/126/132 56/105/132
f 51/99/133 53/179/133 52/100/133
f 64/102/134 82/161/134 84/103/134
f 56/105/135 57/126/135 55/106/135
f 63/108/136 51/99/83 50/101/85
f 67/120/137 69/191/137 61/121/137
f 62/192/138 64/102/138 70/139/138
f 57/126/139 79/186/139 81/127/139
f 59/129/140 70/124/140 63/130/140
f 61/121/141 63/193/141 65/132/141
f 54/107/89 55/106/88 69/133/142
f 66/114/143 78/156/143 83/135/143
f 66/114/144 68/136/144 58/194/144
f 69/140/145 71/137/145 59/129/145
f 78/152/146 79/195/146 80/153/146
f 66/114/147 73/144/147 85/155/147
f 52/196/148 76/197/148 77/198/148
f 64/102/149 62/192/149 77/160/149
f 76/165/150 75/199/150 82/166/150
f 55/176/151 81/200/151 85/177/151
f 53/179/152 51/99/152 74/180/152
f 72/182/153 84/201/153 74/183/153
f 56/202/154 68/203/154 83/204/154
