# Blender 4.0.2
# www.blender.org
o Floor_Batten_Corner_Outer
v -1.000000 1.000000 0.000000
v -1.000000 0.000000 1.000000
v 0.000000 1.000000 -1.000000
v 1.000000 0.000000 -1.000000
v -1.000000 0.000000 0.000000
v 0.000000 0.000000 -1.000000
v -0.000000 1.000000 -0.000000
v 1.000000 0.000000 1.000000
v 0.000000 0.000000 0.000000
vn -0.0000 1.0000 -0.0000
vn 1.0000 -0.0000 -0.0000
vn -0.0000 -0.0000 1.0000
vt 0.500000 0.500000
vt 1.000000 0.500000
vt 1.000000 1.000000
vt 0.500000 1.000000
vt 0.000000 0.500000
vt 0.000000 1.000000
vt 0.000000 0.000000
vt 0.500000 0.000000
vt 1.000000 0.000000
s 0
f 9/1/1 8/2/1 4/3/1 6/4/1
f 7/5/2 9/1/2 6/4/2 3/6/2
f 1/7/3 5/8/3 9/1/3 7/5/3
f 5/8/1 2/9/1 8/2/1 9/1/1
