# Blender 4.0.2
# www.blender.org
o Overhang_Corner_Outer
v 0.000000 1.000000 -1.000000
v -1.000000 1.000000 0.000000
v 0.000000 0.000000 -1.000000
v -1.000000 0.000000 -1.000000
v -1.000000 0.000000 0.000000
v 0.000000 1.000000 0.000000
v 0.000000 0.000000 0.000000
vn -0.0000 -1.0000 -0.0000
vn -0.0000 -0.0000 1.0000
vn 1.0000 -0.0000 -0.0000
vt 0.500000 0.500000
vt 1.000000 0.500000
vt 1.000000 1.000000
vt 0.500000 1.000000
vt 0.500000 0.000000
vt 1.000000 0.000000
vt 0.000000 0.000000
vt 0.000000 0.500000
s 0
f 7/1/1 5/2/1 4/3/1 3/4/1
f 6/5/2 2/6/2 5/2/2 7/1/2
f 1/7/3 6/5/3 7/1/3 3/8/3
