# Blender 4.0.2
# www.blender.org
o Ledge_Corner_Outer
v -1.000000 -1.000000 0.000000
v 0.000000 -1.000000 -1.000000
v -1.000000 0.000000 -1.000000
v 0.000000 0.000000 -1.000000
v -1.000000 0.000000 0.000000
v 0.000000 -1.000000 0.000000
v 0.000000 0.000000 0.000000
vn -0.0000 1.0000 -0.0000
vn 1.0000 -0.0000 -0.0000
vn -0.0000 -0.0000 1.0000
vt 0.500000 0.500000
vt 1.000000 1.000000
vt 0.500000 1.000000
vt 0.500000 0.000000
vt 1.000000 0.000000
vt 1.000000 0.500000
vt 0.000000 0.000000
vt 0.000000 0.500000
vt 0.000000 1.000000
s 0
f 7/1/1 4/2/1 3/3/1
f 6/4/2 2/5/2 4/6/2 7/1/2
f 1/7/3 6/4/3 7/1/3 5/8/3
f 5/8/1 7/1/1 3/9/1
