# Blender 4.0.2
# www.blender.org
o Hand_Open
v -0.053841 0.092235 0.117343
v -0.218577 0.081735 0.166293
v -0.056859 0.080604 0.007678
v -0.250319 0.066975 0.043493
v 0.006128 -0.121438 0.155237
v -0.199949 -0.124514 0.164353
v -0.026241 -0.118253 0.081171
v -0.204286 -0.121491 0.054259
v -0.037741 -0.052201 0.060883
v -0.208362 -0.071401 0.066860
v -0.019158 -0.049335 0.165809
v -0.205137 -0.061999 0.177355
v -0.041510 0.014293 0.038399
v -0.212369 0.016936 0.175301
v -0.215840 -0.002747 0.032891
v -0.050842 0.025244 0.152767
v -0.010299 0.129932 0.039520
v -0.249360 0.081734 0.105729
v 0.000669 -0.153668 0.105370
v -0.198437 -0.163191 0.110305
v 0.060976 -0.046987 0.122732
v 0.040816 0.031746 0.131909
v 0.042839 -0.011915 0.086255
v 0.038566 -0.096801 0.118772
v 0.004136 0.067108 0.092303
v 0.016412 0.101723 0.107765
v 0.051796 -0.123659 0.133490
v 0.088956 -0.151656 0.045529
v 0.076191 -0.122416 0.022796
v 0.124333 -0.123929 0.066503
v 0.093301 -0.104564 0.048452
v 0.097329 -0.052468 0.027977
v 0.139678 -0.049915 0.070174
v 0.114640 -0.085358 0.050822
v 0.112370 -0.020439 0.050028
v 0.105305 0.025531 0.030085
v 0.147149 0.035645 0.089630
v 0.132259 -0.001657 0.060941
v 0.125744 0.067298 0.053807
v 0.061508 0.094409 0.003056
v 0.069310 0.135892 0.018335
v 0.115895 0.107678 0.067357
v 0.092333 0.076468 0.050325
v 0.144395 -0.150040 -0.022987
v 0.139544 -0.121342 -0.033089
v 0.178653 -0.122344 -0.001314
v 0.154883 -0.103132 -0.015750
v 0.173218 -0.050680 -0.034371
v 0.207475 -0.048453 0.007756
v 0.191522 -0.083498 -0.009960
v 0.189253 -0.018579 -0.010754
v 0.199560 0.029772 -0.014998
v 0.225998 0.038038 0.040758
v 0.209303 0.004290 0.020894
v 0.203309 0.067730 0.014331
v 0.150881 0.099375 -0.030557
v 0.160570 0.134702 -0.019803
v 0.192720 0.108025 0.021609
v 0.182005 0.081422 0.001724
v 0.225736 0.101149 -0.081764
v 0.232845 0.130727 -0.074507
v 0.303708 0.106745 -0.065178
v 0.255908 0.082473 -0.051448
v 0.256678 0.031315 -0.052244
v 0.332830 0.039377 -0.043855
v 0.281957 0.015077 -0.026288
v 0.277595 0.061248 -0.031064
v 0.214057 -0.049913 -0.077589
v 0.283512 -0.047331 -0.087863
v 0.236226 -0.076274 -0.056564
v 0.234384 -0.023595 -0.057208
v 0.181589 -0.140783 -0.073564
v 0.159151 -0.119583 -0.073741
v 0.224311 -0.114342 -0.092236
v 0.189154 -0.103098 -0.064274
v 0.096879 0.108083 0.084704
v 0.123899 0.036085 0.113967
v 0.122117 -0.050219 0.096706
v 0.111771 -0.125484 0.095739
v 0.173475 0.108802 0.046696
v 0.208674 0.038906 0.064968
v 0.200841 -0.048271 0.029948
v 0.172293 -0.123502 0.025494
v 0.255678 0.106911 -0.019712
v 0.287818 0.039613 -0.000476
v 0.259825 -0.047257 -0.037108
v 0.208789 -0.120338 -0.047610
v -0.171362 0.114931 -0.022456
v -0.103888 0.158806 0.015688
v -0.054968 0.153341 -0.067092
v -0.009352 0.121261 -0.037610
v -0.024834 0.195362 -0.050226
v -0.006027 0.168543 -0.025432
v 0.041254 0.168539 -0.099074
v 0.084942 0.145414 -0.080158
v 0.047162 0.189385 -0.068490
v 0.059830 0.171319 -0.051789
v 0.101779 0.174863 -0.093063
v -0.284090 0.062199 0.121504
v -0.284900 0.049726 0.068909
v -0.273119 -0.068521 0.097670
v -0.269674 -0.110852 0.087021
v -0.264731 -0.146093 0.134386
v -0.266009 -0.113407 0.180063
v -0.276505 0.006133 0.189315
v -0.281751 0.060896 0.181702
v -0.279438 -0.010501 0.068963
v -0.270393 -0.060575 0.191050
v -0.290465 -0.067208 0.141833
v -0.296321 -0.005221 0.135420
vn 0.1488 -0.2666 -0.9523
vn 0.0364 -0.8411 0.5396
vn 0.2252 0.4633 0.8571
vn 0.4615 -0.2747 0.8435
vn -0.4809 -0.1054 -0.8704
vn -0.4149 0.1901 -0.8898
vn 0.2049 -0.7028 0.6812
vn 0.0458 -0.1292 0.9906
vn 0.0609 -0.3166 -0.9466
vn 0.0685 -0.4063 -0.9112
vn -0.0682 0.9123 0.4038
vn 0.1981 -0.1838 0.9628
vn 0.0478 0.1917 0.9803
vn 0.0017 -0.8132 0.5820
vn 0.1039 -0.9678 -0.2292
vn 0.4098 -0.2713 -0.8709
vn 0.1863 0.1528 0.9705
vn 0.2061 0.0443 0.9775
vn 0.2892 0.7578 0.5849
vn 0.2903 0.7578 0.5843
vn 0.2891 0.7578 0.5849
vn 0.0063 -0.5609 -0.8279
vn 0.0975 0.8539 0.5112
vn 0.5347 -0.1617 -0.8294
vn -0.1232 -0.8580 -0.4987
vn 0.2915 0.7578 0.5837
vn 0.6916 0.1386 0.7089
vn 0.3729 0.5804 0.7239
vn -0.3492 0.8622 -0.3670
vn 0.2544 -0.7685 0.5871
vn 0.0533 0.8857 0.4612
vn 0.6309 0.3858 0.6731
vn 0.0853 0.7812 0.6185
vn 0.8013 -0.0886 -0.5917
vn 0.5072 0.4205 0.7523
vn 0.1803 -0.4538 0.8727
vn 0.4165 -0.4898 0.7659
vn 0.2049 -0.8321 0.5154
vn -0.3748 -0.7001 -0.6078
vn -0.6158 -0.3522 -0.7048
vn -0.3792 0.8587 -0.3446
vn 0.2906 -0.8695 0.3995
vn 0.4433 0.5888 0.6759
vn 0.4399 -0.7217 0.5344
vn -0.4554 -0.6808 -0.5738
vn 0.6532 -0.3473 0.6728
vn -0.2957 0.6320 -0.7163
vn 0.1918 0.7895 0.5830
vn -0.2145 -0.8222 -0.5272
vn -0.2166 -0.8228 -0.5254
vn -0.2151 -0.8195 -0.5311
vn -0.2493 0.5676 -0.7846
vn 0.0352 -0.8491 -0.5270
vn 0.3332 -0.7760 0.5356
vn -0.3557 0.3601 -0.8624
vn -0.2645 0.3767 -0.8878
vn 0.0338 0.9268 0.3741
vn 0.0340 0.9267 0.3742
vn 0.0319 0.9272 0.3731
vn 0.4605 0.8218 0.3354
vn 0.4696 -0.8627 0.1875
vn 0.3665 -0.8887 0.2756
vn 0.3190 0.8673 0.3821
vn 0.3789 0.8010 0.4634
vn -0.5012 0.6611 -0.5583
vn -0.4866 0.6388 -0.5959
vn 0.3613 0.7307 0.5793
vn -0.3838 0.5880 -0.7120
vn 0.3487 0.7576 0.5518
vn -0.3696 0.5904 -0.7175
vn -0.3692 0.5890 -0.7189
vn -0.3692 0.5893 -0.7186
vn 0.3579 -0.7319 0.5799
vn 0.2600 0.8910 0.3721
vn 0.4116 -0.7206 0.5579
vn 0.1049 0.9334 0.3432
vn -0.0663 -0.9464 -0.3160
vn 0.1904 -0.7399 -0.6452
vn 0.1912 0.1903 -0.9629
vn -0.1989 -0.9253 -0.3228
vn -0.5601 0.3219 -0.7633
vn 0.0314 0.5626 -0.8261
vn 0.1500 -0.7659 -0.6252
vn 0.4623 -0.6927 0.5535
vn -0.2115 -0.9079 -0.3620
vn -0.0852 -0.6641 -0.7428
vn -0.1330 0.6690 -0.7312
vn -0.4681 -0.7571 -0.4557
vn 0.6403 -0.5582 0.5277
vn -0.2318 0.7661 -0.5995
vn -0.2434 -0.2655 -0.9329
vn -0.5137 0.7777 -0.3623
vn -0.8557 -0.2944 -0.4255
vn 0.4908 -0.6727 0.5537
vn 0.2701 0.9229 0.2745
vn 0.5526 -0.6354 0.5394
vn 0.4555 0.7844 0.4210
vn 0.6264 -0.6648 0.4070
vn 0.5430 0.7547 0.3681
vn 0.4172 0.8801 0.2264
vn 0.4176 0.8800 0.2262
vn 0.4174 0.8801 0.2263
vn 0.5353 -0.8239 0.1862
vn 0.3860 0.8825 0.2688
vn 0.6160 -0.6156 0.4916
vn 0.6406 -0.5994 0.4799
vn 0.5515 0.7488 0.3678
vn 0.7644 0.6048 0.2235
vn 0.8267 -0.5034 0.2513
vn 0.5847 -0.8046 0.1040
vn 0.5564 0.8140 0.1672
vn 0.2685 0.9193 0.2877
vn 0.2733 0.9186 0.2854
vn 0.2729 0.9187 0.2856
vn 0.5000 -0.6844 0.5307
vn 0.5075 -0.6791 0.5303
vn 0.4167 0.8020 0.4280
vn 0.5442 0.7999 0.2528
vn 0.6337 -0.7144 0.2968
vn 0.4876 0.8267 0.2807
vn 0.5495 -0.8317 0.0794
vn 0.0972 -0.4534 -0.8860
vn 0.3179 0.2838 -0.9046
vn -0.5731 -0.1613 -0.8034
vn -0.5080 0.8570 -0.0872
vn 0.1391 0.8584 0.4937
vn 0.7630 -0.2110 0.6110
vn -0.3672 0.9112 0.1866
vn -0.6130 0.7708 -0.1734
vn -0.0712 0.8306 -0.5524
vn -0.6467 0.6340 -0.4240
vn -0.0311 -0.7160 -0.6974
vn 0.3730 0.1302 0.9186
vn 0.7023 -0.0922 0.7059
vn 0.1983 0.7367 0.6465
vn 0.2222 0.7413 0.6333
vn 0.4604 -0.4138 0.7854
vn -0.1063 -0.7439 -0.6598
vn -0.1005 -0.7469 -0.6573
vn -0.1017 -0.7463 -0.6577
vn -0.0311 0.8287 -0.5588
vn 0.4247 0.7570 0.4966
vn 0.1353 -0.4615 -0.8767
vn -0.9350 -0.0406 0.3523
vn -0.9249 -0.3210 0.2038
vn -0.9227 -0.0476 0.3827
vn -0.9248 -0.1246 -0.3595
vn -0.9469 -0.2973 -0.1224
vn -0.9671 -0.0879 -0.2387
vn -0.4067 0.8899 0.2067
vn -0.5444 0.8180 -0.1856
vn -0.4015 -0.4409 -0.8027
vn -0.3862 -0.7589 -0.5243
vn -0.0608 0.2389 -0.9691
vn 0.0532 -0.8114 0.5821
vn 0.1291 0.1487 0.9804
vn -0.5741 -0.0528 -0.8171
vn 0.0741 -0.1972 0.9776
vn 0.0183 -0.4418 -0.8969
vn 0.1361 0.0382 0.9900
vn -0.0537 -0.9447 -0.3235
vn 0.3381 0.8238 0.4550
vn 0.1052 -0.7925 -0.6007
vn -0.4449 -0.6569 -0.6087
vn -0.1353 0.9428 -0.3047
vn 0.1845 -0.7062 0.6835
vn 0.1760 0.8096 0.5599
vn 0.2410 -0.7300 0.6395
vn -0.4087 -0.6647 -0.6254
vn -0.5897 -0.6402 -0.4923
vn -0.4165 0.7859 -0.4570
vn 0.2090 -0.9029 0.3757
vn 0.4164 0.8804 0.2269
vn 0.4308 -0.6475 0.6286
vn -0.4577 -0.6570 -0.5991
vn 0.2026 -0.7931 0.5744
vn -0.1593 0.7343 -0.6599
vn 0.2307 0.8559 0.4628
vn -0.2143 -0.8181 -0.5337
vn -0.0945 0.7499 -0.6548
vn -0.0846 -0.7831 -0.6161
vn 0.2774 -0.6131 0.7397
vn -0.3440 0.3808 -0.8583
vn -0.1014 0.6053 -0.7895
vn 0.0295 0.9278 0.3719
vn 0.4553 0.8300 0.3222
vn 0.4887 -0.8255 0.2824
vn 0.3804 -0.8154 0.4364
vn 0.3067 0.8984 0.3142
vn 0.5763 0.6546 0.4892
vn -0.4972 0.7377 -0.4567
vn -0.4848 0.6624 -0.5711
vn 0.3606 0.7994 0.4805
vn -0.4036 0.6994 -0.5899
vn 0.3518 0.8156 0.4593
vn -0.3696 0.5907 -0.7172
vn 0.3110 -0.6543 0.6893
vn 0.2684 0.9193 0.2877
vn 0.4107 -0.6462 0.6432
vn 0.1660 0.9146 0.3687
vn -0.1484 -0.9181 -0.3675
vn -0.2285 -0.9139 -0.3356
vn -0.5291 0.3766 -0.7604
vn 0.4513 -0.6078 0.6534
vn -0.2186 -0.8227 -0.5247
vn -0.4734 -0.6803 -0.5596
vn 0.4601 -0.7213 0.5177
vn -0.4327 0.8853 -0.1704
vn -0.5771 -0.6153 -0.5370
vn -0.3403 0.5502 -0.7626
vn -0.3991 0.8687 -0.2932
vn -0.0524 -0.7151 -0.6970
vn 0.3685 -0.2561 0.8937
vn -0.1076 -0.7433 -0.6603
vn -0.9815 0.1868 0.0422
vn -0.9070 -0.1566 0.3910
vn -0.9306 -0.0759 0.3582
vn -0.9506 -0.2146 -0.2244
vn -0.9305 0.0163 -0.3660
vn -0.9845 0.1733 -0.0259
vn -0.3059 0.9515 0.0325
vt 0.474760 0.954365
vt 0.472083 0.953838
vt 0.472083 0.960037
vt 0.476995 0.976245
vt 0.479204 0.975600
vt 0.477180 0.968686
vt 0.482632 0.971557
vt 0.485179 0.971428
vt 0.484530 0.964903
vt 0.470406 0.961914
vt 0.469980 0.958429
vt 0.468544 0.961264
vt 0.466248 0.972608
vt 0.468544 0.973388
vt 0.467870 0.970621
vt 0.452726 0.953049
vt 0.454518 0.952974
vt 0.453498 0.950289
vt 0.456980 0.974726
vt 0.456507 0.971250
vt 0.454608 0.975356
vt 0.481214 0.975009
vt 0.480164 0.958079
vt 0.482632 0.952941
vt 0.480164 0.951759
vt 0.472138 0.981079
vt 0.474760 0.980711
vt 0.471956 0.974861
vt 0.488169 0.973706
vt 0.485194 0.974039
vt 0.479195 0.968639
vt 0.478893 0.966243
vt 0.477190 0.966283
vt 0.457391 0.987825
vt 0.459904 0.981440
vt 0.457397 0.982281
vt 0.475144 0.967058
vt 0.464212 0.957712
vt 0.460799 0.956656
vt 0.461616 0.961034
vt 0.482509 0.949087
vt 0.482860 0.965456
vt 0.484043 0.962555
vt 0.481268 0.968937
vt 0.480645 0.966495
vt 0.457920 0.977783
vt 0.459996 0.977904
vt 0.460365 0.975342
vt 0.462438 0.980228
vt 0.464212 0.981036
vt 0.463078 0.973582
vt 0.490188 0.970392
vt 0.472626 0.950857
vt 0.474760 0.961594
vt 0.470993 0.960037
vt 0.472140 0.965318
vt 0.457632 0.966206
vt 0.459468 0.965356
vt 0.458742 0.963424
vt 0.459963 0.963447
vt 0.454518 0.969982
vt 0.453831 0.966715
vt 0.452535 0.966672
vt 0.455048 0.978872
vt 0.457391 0.977846
vt 0.482800 0.975105
vt 0.482890 0.978320
vt 0.485466 0.978908
vt 0.485066 0.974012
vt 0.461830 0.956656
vt 0.464212 0.954367
vt 0.461830 0.952698
vt 0.453105 0.972348
vt 0.452493 0.974625
vt 0.453988 0.974851
vt 0.452807 0.978404
vt 0.479076 0.977519
vt 0.461575 0.984709
vt 0.460365 0.987695
vt 0.461391 0.987825
vt 0.453646 0.963391
vt 0.476476 0.980360
vt 0.460365 0.960713
vt 0.468635 0.965248
vt 0.468618 0.969068
vt 0.470620 0.968422
vt 0.471560 0.969038
vt 0.473275 0.969171
vt 0.477991 0.963918
vt 0.477755 0.960857
vt 0.476134 0.960967
vt 0.483506 0.979465
vt 0.483941 0.981984
vt 0.455500 0.961938
vt 0.455052 0.965988
vt 0.456803 0.965881
vt 0.468544 0.969392
vt 0.468304 0.964458
vt 0.466359 0.965050
vt 0.457391 0.958921
vt 0.454518 0.956454
vt 0.452855 0.982354
vt 0.454608 0.981239
vt 0.490188 0.957887
vt 0.489729 0.954064
vt 0.488353 0.954424
vt 0.490086 0.961087
vt 0.488527 0.958144
vt 0.485509 0.977207
vt 0.488421 0.976823
vt 0.458084 0.956630
vt 0.459359 0.956310
vt 0.458831 0.954261
vt 0.475382 0.983580
vt 0.474760 0.985887
vt 0.476268 0.986367
vt 0.477633 0.983659
vt 0.458364 0.960067
vt 0.459886 0.959615
vt 0.459903 0.957160
vt 0.459283 0.970689
vt 0.458887 0.968034
vt 0.457391 0.968482
vt 0.475725 0.957232
vt 0.477394 0.957115
vt 0.476764 0.954724
vt 0.458261 0.974729
vt 0.459915 0.974215
vt 0.459785 0.971364
vt 0.465929 0.960998
vt 0.467800 0.961104
vt 0.466928 0.957816
vt 0.486210 0.982210
vt 0.484585 0.982915
vt 0.485519 0.985657
vt 0.454874 0.982234
vt 0.456968 0.981614
vt 0.488992 0.980618
vt 0.486879 0.981465
vt 0.487753 0.984268
vt 0.452493 0.985878
vt 0.453943 0.985302
vt 0.485929 0.978113
vt 0.486218 0.980454
vt 0.463738 0.961506
vt 0.461500 0.964755
vt 0.460799 0.968191
vt 0.461985 0.970804
vt 0.462445 0.968873
vt 0.464351 0.967682
vt 0.464351 0.970528
vt 0.465399 0.969963
vt 0.463195 0.965445
vt 0.488683 0.950714
vt 0.487578 0.951003
vt 0.466270 0.955734
vt 0.465399 0.958410
vt 0.455917 0.969165
vt 0.454518 0.968576
vt 0.455341 0.971250
vt 0.454608 0.985626
vt 0.456009 0.985500
vt 0.470993 0.971204
vt 0.471696 0.973813
vt 0.472521 0.971547
vt 0.475950 0.952459
vt 0.475292 0.955052
vt 0.470248 0.969166
vt 0.468544 0.971574
vt 0.452123 0.961994
vt 0.453279 0.961277
vt 0.452975 0.959498
vt 0.478921 0.953734
vt 0.479117 0.955671
vt 0.480164 0.956053
vt 0.452525 0.963457
vt 0.464662 0.967682
vt 0.465399 0.966735
vt 0.464662 0.965552
vt 0.454380 0.978942
vt 0.454581 0.977959
vt 0.456958 0.979082
vt 0.470456 0.965581
vt 0.470732 0.964399
vt 0.478148 0.981253
vt 0.478707 0.980235
vt 0.454213 0.982395
vt 0.456473 0.982649
vt 0.457818 0.970935
vt 0.477059 0.984423
vt 0.488884 0.986570
vt 0.490175 0.983942
vt 0.453421 0.987825
vt 0.455285 0.987825
vt 0.486603 0.987825
vt 0.487025 0.985511
vt 0.457875 0.966206
vt 0.469456 0.973813
vt 0.470161 0.971852
vt 0.457944 0.952687
vt 0.457632 0.954407
vt 0.475477 0.987825
vt 0.468544 0.977948
vt 0.468544 0.952821
vt 0.465632 0.952821
vt 0.466486 0.955734
vt 0.469972 0.973813
vt 0.466509 0.976586
vt 0.464212 0.972128
vt 0.464212 0.979037
vt 0.482747 0.954557
vt 0.482805 0.957330
vt 0.484420 0.957742
vt 0.486704 0.964518
vt 0.464805 0.982921
vt 0.465418 0.985695
vt 0.466818 0.985616
vt 0.466483 0.981634
vt 0.468544 0.982895
vt 0.469772 0.953624
vt 0.471221 0.949802
vt 0.468544 0.950858
vt 0.482747 0.961465
vt 0.483255 0.962555
vt 0.484099 0.960427
vt 0.471327 0.953953
vt 0.468690 0.956139
vt 0.469738 0.956360
vt 0.470857 0.983727
vt 0.469061 0.986817
vt 0.466451 0.987825
vt 0.468544 0.958429
vt 0.460639 0.956656
vt 0.461830 0.956160
vt 0.460639 0.954585
vt 0.480221 0.963649
vt 0.477991 0.963968
vt 0.478228 0.966120
vt 0.480037 0.961216
vt 0.480254 0.958079
vt 0.478466 0.959303
vt 0.477991 0.961356
vt 0.481587 0.961158
vt 0.482038 0.959514
vt 0.482574 0.965818
vt 0.482632 0.963462
vt 0.486033 0.963193
vt 0.466113 0.970933
vt 0.484867 0.959689
vt 0.484420 0.962442
vt 0.486711 0.962555
vt 0.462883 0.970804
vt 0.460590 0.971075
vt 0.451984 0.959498
vt 0.474760 0.969604
vt 0.451984 0.950353
vt 0.487578 0.959824
vt 0.484420 0.953288
vt 0.482632 0.974709
vt 0.482632 0.963022
vt 0.460365 0.973902
vt 0.473801 0.965442
vt 0.452123 0.971250
vt 0.463050 0.984993
vt 0.475292 0.966243
vt 0.457321 0.962529
vt 0.465399 0.970528
vt 0.487578 0.962555
vt 0.478921 0.958079
vt 0.470859 0.987825
vt 0.480540 0.966243
vt 0.464392 0.970528
s 1
f 9/1/1 7/2/1 8/3/1
f 19/4/2 5/5/2 6/6/2
f 16/7/3 1/8/3 2/9/3
f 21/10/4 11/11/4 24/12/4
f 4/13/5 15/14/5 107/15/5
f 10/16/6 8/17/6 102/18/6
f 22/19/7 16/20/7 23/21/7
f 6/6/8 5/5/8 11/22/8
f 15/23/9 13/24/9 9/25/9
f 3/26/10 13/27/10 15/28/10
f 17/29/11 1/8/11 26/30/11
f 12/31/12 108/32/12 104/33/12
f 12/34/13 11/35/13 16/36/13
f 6/6/14 104/33/14 103/37/14
f 25/38/15 3/39/15 40/40/15
f 13/24/16 23/41/16 9/25/16
f 14/42/17 2/9/17 106/43/17
f 14/44/18 105/45/18 108/32/18
f 23/46/19 21/47/20 78/48/21
f 7/49/22 19/50/22 20/51/22
f 1/8/23 89/52/23 2/9/23
f 24/53/24 7/2/24 9/1/24
f 24/54/25 9/55/25 32/56/25
f 11/35/26 21/47/20 23/46/19
f 11/57/27 5/58/27 24/59/27
f 5/58/28 27/60/28 24/59/28
f 24/61/29 31/62/29 29/63/29
f 23/21/30 38/64/30 77/65/30
f 22/66/31 77/67/31 39/68/31
f 16/36/32 11/35/32 23/46/32
f 16/7/33 22/66/33 25/69/33
f 25/70/34 13/71/34 3/72/34
f 1/8/35 16/7/35 25/69/35
f 1/73/36 25/74/36 26/75/36
f 26/75/37 25/74/37 43/76/37
f 27/77/38 5/5/38 19/4/38
f 19/50/39 7/49/39 29/78/39
f 29/78/40 45/79/40 44/80/40
f 29/63/41 31/62/41 47/81/41
f 27/77/42 19/4/42 28/82/42
f 24/59/43 27/60/43 79/83/43
f 34/84/44 50/85/44 82/86/44
f 32/56/45 48/87/45 50/88/45
f 21/10/46 24/12/46 34/84/46
f 23/89/47 35/90/47 32/91/47
f 39/68/48 37/92/48 81/93/48
f 36/94/49 52/95/50 54/96/51
f 25/97/52 39/98/52 36/99/52
f 23/100/53 13/101/53 36/94/53
f 43/76/54 59/102/54 80/103/54
f 41/104/55 57/105/55 56/106/55
f 17/107/56 41/104/56 40/108/56
f 26/30/57 76/109/58 41/110/59
f 47/111/60 46/112/60 87/113/60
f 44/114/61 72/115/61 87/116/61
f 28/82/62 44/114/62 83/117/62
f 31/118/63 30/119/63 83/120/63
f 49/121/64 86/122/64 71/123/64
f 48/124/65 51/125/65 71/126/65
f 32/91/66 35/90/66 51/125/66
f 35/127/67 33/128/67 82/129/67
f 52/130/68 55/131/68 67/132/68
f 55/133/69 53/134/69 85/135/69
f 36/99/70 39/98/71 55/131/72
f 38/64/73 54/136/73 81/137/73
f 57/138/74 58/139/74 84/140/74
f 59/102/75 63/141/75 84/142/75
f 42/143/76 80/144/76 57/138/76
f 43/145/77 40/40/77 56/146/77
f 60/147/78 62/148/78 63/149/78
f 62/150/79 60/151/79 61/152/79
f 59/153/80 56/146/80 60/147/80
f 57/105/81 61/154/81 60/155/81
f 67/132/82 65/156/82 64/157/82
f 66/158/83 64/159/83 65/160/83
f 54/136/84 66/161/84 85/162/84
f 52/95/85 64/159/85 66/158/85
f 68/163/86 69/164/86 70/165/86
f 71/126/87 69/166/87 68/167/87
f 48/87/88 68/163/88 70/165/88
f 49/168/89 50/85/89 70/169/89
f 73/170/90 75/171/90 74/172/90
f 74/173/91 72/174/91 73/175/91
f 45/176/92 47/81/92 75/171/92
f 44/177/93 45/178/93 73/179/93
f 43/76/94 42/180/94 76/181/94
f 76/109/95 42/143/95 41/110/95
f 38/64/96 37/182/96 77/65/96
f 77/67/97 37/92/97 39/68/97
f 34/84/98 33/183/98 78/184/98
f 78/48/99 33/128/99 35/127/99
f 79/83/100 30/119/101 31/118/102
f 28/82/103 30/185/103 79/186/103
f 80/144/104 58/139/104 57/138/104
f 59/102/105 58/187/105 80/103/105
f 54/136/106 53/188/106 81/137/106
f 81/93/107 53/134/107 55/133/107
f 82/129/108 49/121/108 51/189/108
f 50/85/109 49/168/109 82/86/109
f 44/114/110 46/190/110 83/117/110
f 83/120/111 46/112/111 47/111/111
f 84/140/112 62/191/113 61/192/114
f 63/141/115 62/193/115 84/142/115
f 66/161/116 65/194/116 85/162/116
f 85/135/117 65/195/117 67/196/117
f 86/122/118 69/197/118 71/123/118
f 70/169/119 69/198/119 86/199/119
f 87/113/120 74/200/120 75/201/120
f 72/115/121 74/202/121 87/116/121
f 15/28/122 88/203/122 3/26/122
f 17/204/123 3/205/123 89/206/123
f 88/203/124 15/28/124 4/207/124
f 88/208/125 18/209/125 89/210/125
f 89/52/126 1/8/126 17/29/126
f 3/211/127 91/212/127 93/213/127
f 89/52/128 18/214/128 2/9/128
f 18/209/129 88/208/129 4/13/129
f 92/215/130 96/216/130 94/217/130
f 89/210/131 92/215/131 90/218/131
f 3/26/132 88/203/132 90/219/132
f 93/220/133 89/221/133 3/222/133
f 95/223/134 98/224/134 97/225/134
f 89/221/135 93/220/135 92/226/135
f 93/220/136 97/227/136 96/228/136
f 91/212/137 95/223/137 97/225/137
f 91/229/138 90/219/139 94/230/140
f 94/217/141 96/216/141 98/231/141
f 96/228/142 97/227/142 98/232/142
f 98/233/143 95/234/143 94/235/143
f 110/236/144 105/237/144 106/238/144
f 109/239/145 103/240/145 104/241/145
f 110/236/146 109/239/146 108/242/146
f 101/243/147 109/239/147 110/236/147
f 102/244/148 103/240/148 109/239/148
f 100/245/149 107/246/149 110/236/149
f 2/9/150 18/214/150 99/247/150
f 18/209/151 4/13/151 100/248/151
f 10/249/152 101/250/152 107/251/152
f 20/51/153 103/252/153 102/253/153
f 9/254/154 8/17/154 10/16/154
f 19/4/155 6/6/155 20/255/155
f 16/7/156 2/9/156 14/42/156
f 4/13/157 107/15/157 100/248/157
f 10/16/6 102/18/6 101/256/6
f 6/6/158 11/22/158 12/31/158
f 15/257/159 9/258/159 10/249/159
f 12/31/12 104/33/12 6/6/12
f 12/31/160 16/259/160 14/44/160
f 6/6/14 103/37/14 20/255/14
f 25/38/161 40/40/161 43/145/161
f 14/42/17 106/43/17 105/260/17
f 14/44/18 108/32/18 12/31/18
f 23/46/162 78/48/162 35/127/162
f 7/49/163 20/51/163 8/261/163
f 24/54/164 32/56/164 34/262/164
f 24/61/165 29/63/165 7/263/165
f 23/21/166 77/65/166 22/19/166
f 22/66/167 39/68/167 25/69/167
f 26/75/168 43/76/168 76/181/168
f 19/50/169 29/78/169 28/264/169
f 29/78/170 44/80/170 28/264/170
f 29/63/171 47/81/171 45/176/171
f 27/77/172 28/82/172 79/186/172
f 24/59/173 79/83/100 31/118/102
f 34/84/174 82/86/174 33/183/174
f 32/56/175 50/88/175 34/262/175
f 21/10/176 34/84/176 78/184/176
f 23/89/177 32/91/177 9/265/177
f 39/68/178 81/93/178 55/133/178
f 36/94/49 54/96/51 38/266/179
f 25/97/180 36/99/180 13/267/180
f 23/100/181 36/94/181 38/266/181
f 43/76/182 80/103/182 42/180/182
f 41/104/183 56/106/183 40/108/183
f 17/107/184 40/108/184 3/268/184
f 26/30/57 41/110/59 17/29/185
f 47/111/186 87/113/186 75/201/186
f 44/114/187 87/116/187 46/190/187
f 28/82/188 83/117/188 30/185/188
f 31/118/189 83/120/189 47/111/189
f 49/121/190 71/123/190 51/189/190
f 48/124/191 71/126/191 68/167/191
f 32/91/192 51/125/192 48/124/192
f 35/127/193 82/129/193 51/189/193
f 52/130/194 67/132/194 64/157/194
f 55/133/195 85/135/195 67/196/195
f 36/99/70 55/131/72 52/130/196
f 38/64/197 81/137/197 37/182/197
f 57/138/198 84/140/112 61/192/114
f 59/102/199 84/142/199 58/187/199
f 42/143/200 57/138/200 41/110/200
f 43/145/201 56/146/201 59/153/201
f 59/153/202 60/147/202 63/149/202
f 57/105/203 60/155/203 56/106/203
f 54/136/204 85/162/204 53/188/204
f 52/95/50 66/158/205 54/96/51
f 48/87/206 70/165/206 50/88/206
f 49/168/207 70/169/207 86/199/207
f 45/176/208 75/171/208 73/170/208
f 44/269/209 73/175/209 72/174/209
f 92/215/210 94/217/210 90/218/210
f 89/210/211 90/218/211 88/208/211
f 3/26/212 90/219/212 91/229/212
f 93/220/136 96/228/136 92/226/136
f 91/212/213 97/225/213 93/213/213
f 91/229/138 94/230/140 95/270/214
f 110/236/215 106/238/215 99/271/215
f 109/239/216 104/241/216 108/242/216
f 110/236/217 108/242/217 105/237/217
f 101/243/218 110/236/218 107/246/218
f 102/244/219 109/239/219 101/243/219
f 100/245/220 110/236/220 99/271/220
f 2/9/221 99/247/221 106/43/221
f 18/209/151 100/248/151 99/272/151
f 10/249/152 107/251/152 15/257/152
f 20/51/153 102/253/153 8/261/153
